<svg width="46" height="46" viewBox="0 0 46 46" fill="none" xmlns="http://www.w3.org/2000/svg">
<path d="M38.4292 21.083H7.57083C6.56521 21.083 5.75 21.8982 5.75 22.9038V23.0955C5.75 24.1011 6.56521 24.9163 7.57083 24.9163H38.4292C39.4348 24.9163 40.25 24.1011 40.25 23.0955V22.9038C40.25 21.8982 39.4348 21.083 38.4292 21.083Z" fill="#44B273"/>
<path d="M38.4292 30.667H7.57083C6.56521 30.667 5.75 31.4822 5.75 32.4878V32.6795C5.75 33.6851 6.56521 34.5003 7.57083 34.5003H38.4292C39.4348 34.5003 40.25 33.6851 40.25 32.6795V32.4878C40.25 31.4822 39.4348 30.667 38.4292 30.667Z" fill="#44B273"/>
<path d="M38.4292 11.5H7.57083C6.56521 11.5 5.75 12.3152 5.75 13.3208V13.5125C5.75 14.5181 6.56521 15.3333 7.57083 15.3333H38.4292C39.4348 15.3333 40.25 14.5181 40.25 13.5125V13.3208C40.25 12.3152 39.4348 11.5 38.4292 11.5Z" fill="#44B273"/>
</svg>
