<svg width="165" height="165" viewBox="0 0 165 165" fill="none" xmlns="http://www.w3.org/2000/svg">
<g filter="url(#filter0_d_152_1035)">
<circle cx="82.5" cy="67.5" r="52.5" fill="white"/>
<circle cx="82.5" cy="67.5" r="50.5" stroke="#44B273" stroke-width="4"/>
</g>
<path d="M60.9393 66.9393C60.3536 67.5251 60.3536 68.4749 60.9393 69.0607L70.4853 78.6066C71.0711 79.1924 72.0208 79.1924 72.6066 78.6066C73.1924 78.0208 73.1924 77.0711 72.6066 76.4853L64.1213 68L72.6066 59.5147C73.1924 58.9289 73.1924 57.9792 72.6066 57.3934C72.0208 56.8076 71.0711 56.8076 70.4853 57.3934L60.9393 66.9393ZM103 66.5L62 66.5L62 69.5L103 69.5L103 66.5Z" fill="black"/>
<defs>
<filter id="filter0_d_152_1035" x="0" y="0" width="165" height="165" filterUnits="userSpaceOnUse" color-interpolation-filters="sRGB">
<feFlood flood-opacity="0" result="BackgroundImageFix"/>
<feColorMatrix in="SourceAlpha" type="matrix" values="0 0 0 0 0 0 0 0 0 0 0 0 0 0 0 0 0 0 127 0" result="hardAlpha"/>
<feOffset dy="15"/>
<feGaussianBlur stdDeviation="15"/>
<feComposite in2="hardAlpha" operator="out"/>
<feColorMatrix type="matrix" values="0 0 0 0 0 0 0 0 0 0 0 0 0 0 0 0 0 0 0.15 0"/>
<feBlend mode="normal" in2="BackgroundImageFix" result="effect1_dropShadow_152_1035"/>
<feBlend mode="normal" in="SourceGraphic" in2="effect1_dropShadow_152_1035" result="shape"/>
</filter>
</defs>
</svg>
