<svg width="84" height="84" viewBox="0 0 84 84" fill="none" xmlns="http://www.w3.org/2000/svg">
<path d="M40.9504 44.9679L40.9505 44.968C44.1233 45.7327 45.8445 46.6376 46.7681 47.5095C47.6289 48.3222 47.87 49.1749 47.87 50.1428C47.87 50.7817 47.6458 51.6178 46.8908 52.3047C46.1318 52.9953 44.6907 53.6667 42 53.6667C39.984 53.6667 38.566 53.3036 37.5892 52.7651C36.6338 52.2384 36.0472 51.5163 35.7142 50.667C35.1896 49.3019 33.9379 48.1833 32.302 48.1833H31.574C29.0325 48.1833 27.234 50.7682 28.1928 53.1563L28.1953 53.1625C29.7453 56.9584 33.1726 59.2227 36.95 60.239V61.0833C36.95 63.8811 39.2023 66.15 42 66.15C44.7977 66.15 47.05 63.8811 47.05 61.0833V60.3136C49.3697 59.7499 51.5061 58.754 53.1347 57.2382C55.0075 55.4953 56.15 53.1154 56.15 50.1167C56.15 46.0122 54.3713 43.1991 51.797 41.2519C49.2873 39.3537 46.0423 38.2908 43.0704 37.5151C40.1469 36.7519 38.3784 36.0125 37.3527 35.2503C36.8569 34.8819 36.5644 34.5292 36.3902 34.1925C36.2177 33.8591 36.13 33.4812 36.13 33.0139C36.13 31.9898 36.5837 31.122 37.5058 30.4706C38.4605 29.7961 39.9598 29.3333 42 29.3333C43.7104 29.3333 44.8601 29.6613 45.6261 30.1427C46.368 30.609 46.8438 31.2773 47.1125 32.1693C47.5382 33.5928 48.7721 34.8167 50.476 34.8167H51.256C53.745 34.8167 55.555 32.3503 54.6775 29.9595C53.5354 26.7436 50.9756 24.0689 47.05 22.8447V21.9167C47.05 19.1189 44.7977 16.85 42 16.85C39.2023 16.85 36.95 19.1189 36.95 21.9167V22.7385C32.0182 24.0901 27.85 27.593 27.85 33.0661C27.85 36.4584 29.2722 39.0372 31.6701 40.9609C34.0139 42.8411 37.2629 44.0786 40.9504 44.9679Z" stroke="#44B273" stroke-width="2.3"/>
<rect x="1" y="1" width="82" height="82" rx="4" stroke="#44B273" stroke-width="2"/>
</svg>
