<svg width="146" height="146" viewBox="0 0 146 146" fill="none" xmlns="http://www.w3.org/2000/svg"><rect width="146" height="146" rx="15" fill="#44B273"/><mask id="path-2-inside-1_310_1512" fill="#fff"><path d="M80.3459 35.0921C79.6054 33.7919 78.536 32.7113 77.246 31.9598C75.956 31.2083 74.4913 30.8125 73 30.8125C71.5088 30.8125 70.044 31.2083 68.754 31.9598C67.464 32.7113 66.3946 33.7919 65.6541 35.0921L56.0402 51.9802C55.6683 52.6333 55.57 53.408 55.7668 54.1339C55.9636 54.8598 56.4394 55.4774 57.0896 55.8509C57.7398 56.2244 58.511 56.3232 59.2337 56.1255C59.9563 55.9278 60.5712 55.4499 60.9431 54.7968L70.5514 37.903C70.7982 37.4696 71.1547 37.1094 71.5847 36.8589C72.0147 36.6084 72.5029 36.4765 73 36.4765C73.4971 36.4765 73.9853 36.6084 74.4153 36.8589C74.8453 37.1094 75.2018 37.4696 75.4486 37.903L89.7793 63.0879L82.6929 61.178C81.9702 60.9826 81.1998 61.0836 80.5512 61.4588C79.9026 61.834 79.4289 62.4526 79.2344 63.1785C79.0399 63.9045 79.1404 64.6784 79.5139 65.3299C79.8874 65.9813 80.5033 66.4571 81.226 66.6525L94.8514 70.3192C95.2093 70.4161 95.5826 70.4412 95.9502 70.3931C96.3177 70.345 96.6722 70.2246 96.9934 70.0388C97.3146 69.853 97.5962 69.6055 97.8221 69.3103C98.048 69.0152 98.2138 68.6782 98.31 68.3187L101.96 54.6325C102.056 54.273 102.081 53.8981 102.032 53.5291C101.984 53.1601 101.864 52.8043 101.679 52.482C101.494 52.1597 101.247 51.8771 100.953 51.6505C100.659 51.4239 100.324 51.2577 99.9659 51.1613C99.608 51.0649 99.2348 51.0403 98.8674 51.0888C98.5001 51.1374 98.1458 51.2581 97.825 51.4441C97.5041 51.6301 97.2228 51.8778 96.9972 52.173C96.7716 52.4683 96.6061 52.8052 96.5102 53.1647L94.6314 60.2033L80.3459 35.0921V35.0921ZM44.6377 72.025L37.557 73.9348C36.8343 74.1302 36.0639 74.0292 35.4153 73.6541C34.7667 73.2789 34.293 72.6603 34.0985 71.9343C33.904 71.2084 34.0045 70.4345 34.378 69.783C34.7515 69.1315 35.3674 68.6557 36.0901 68.4603L49.7212 64.7937C50.4431 64.5997 51.2122 64.7014 51.8596 65.0765C52.507 65.4516 52.9797 66.0693 53.1741 66.7942L56.8244 80.4804C57.0182 81.2064 56.9169 81.9799 56.5429 82.6309C56.1689 83.2818 55.5527 83.7569 54.83 83.9515C54.1072 84.1462 53.3371 84.0445 52.6891 83.6688C52.041 83.2931 51.568 82.6742 51.3743 81.9482L49.4955 74.9096L35.1366 100.151C34.8916 100.582 34.7635 101.07 34.7652 101.566C34.7669 102.062 34.8982 102.549 35.1461 102.979C35.3941 103.408 35.7498 103.764 36.1779 104.012C36.6059 104.26 37.0912 104.39 37.5853 104.39H56.074C56.8222 104.39 57.5397 104.689 58.0688 105.22C58.5978 105.752 58.895 106.472 58.895 107.224C58.895 107.975 58.5978 108.696 58.0688 109.227C57.5397 109.759 56.8222 110.057 56.074 110.057H37.5853C36.1032 110.057 34.6473 109.665 33.3632 108.922C32.079 108.179 31.0117 107.11 30.2679 105.823C29.5242 104.535 29.1301 103.074 29.125 101.585C29.12 100.097 29.5043 98.6328 30.2394 97.3402L44.6377 72.025V72.025ZM106.079 80.3161C105.9 79.9837 105.657 79.6907 105.364 79.4541C105.071 79.2176 104.733 79.0423 104.372 78.9386C104.01 78.8349 103.631 78.8048 103.258 78.8503C102.885 78.8957 102.524 79.0156 102.198 79.2031C101.871 79.3905 101.585 79.6416 101.357 79.9416C101.128 80.2416 100.962 80.5845 100.867 80.9501C100.772 81.3157 100.751 81.6966 100.806 82.0705C100.86 82.4443 100.987 82.8035 101.182 83.127L110.863 100.151C111.108 100.582 111.236 101.07 111.235 101.566C111.233 102.062 111.102 102.549 110.854 102.979C110.606 103.408 110.25 103.764 109.822 104.012C109.394 104.26 108.909 104.39 108.415 104.39H76.9889L80.6393 100.729C81.1682 100.197 81.4651 99.4758 81.4646 98.7238C81.464 97.9719 81.1661 97.251 80.6364 96.7197C80.3741 96.4566 80.0628 96.248 79.7203 96.1057C79.3777 95.9635 79.0107 95.8904 78.64 95.8907C77.8914 95.8912 77.1737 96.1904 76.6447 96.7225L68.1817 105.223C67.9185 105.486 67.7096 105.798 67.5671 106.142C67.4245 106.485 67.3511 106.854 67.3511 107.227C67.3511 107.599 67.4245 107.968 67.5671 108.312C67.7096 108.655 67.9185 108.968 68.1817 109.23L76.6447 117.731C77.1737 118.263 77.8914 118.562 78.64 118.562C79.0107 118.563 79.3777 118.49 79.7203 118.347C80.0628 118.205 80.3741 117.997 80.6364 117.734C80.8987 117.47 81.1068 117.158 81.2489 116.814C81.391 116.47 81.4643 116.102 81.4646 115.729C81.4648 115.357 81.3921 114.988 81.2505 114.644C81.1089 114.3 80.9012 113.987 80.6393 113.724L76.9889 110.057H108.415C109.897 110.057 111.353 109.665 112.637 108.922C113.921 108.179 114.988 107.11 115.732 105.823C116.476 104.535 116.87 103.074 116.875 101.585C116.88 100.097 116.496 98.6328 115.761 97.3402L106.079 80.3161V80.3161Z"/></mask><path d="M80.3459 35.0921C79.6054 33.7919 78.536 32.7113 77.246 31.9598C75.956 31.2083 74.4913 30.8125 73 30.8125C71.5088 30.8125 70.044 31.2083 68.754 31.9598C67.464 32.7113 66.3946 33.7919 65.6541 35.0921L56.0402 51.9802C55.6683 52.6333 55.57 53.408 55.7668 54.1339C55.9636 54.8598 56.4394 55.4774 57.0896 55.8509C57.7398 56.2244 58.511 56.3232 59.2337 56.1255C59.9563 55.9278 60.5712 55.4499 60.9431 54.7968L70.5514 37.903C70.7982 37.4696 71.1547 37.1094 71.5847 36.8589C72.0147 36.6084 72.5029 36.4765 73 36.4765C73.4971 36.4765 73.9853 36.6084 74.4153 36.8589C74.8453 37.1094 75.2018 37.4696 75.4486 37.903L89.7793 63.0879L82.6929 61.178C81.9702 60.9826 81.1998 61.0836 80.5512 61.4588C79.9026 61.834 79.4289 62.4526 79.2344 63.1785C79.0399 63.9045 79.1404 64.6784 79.5139 65.3299C79.8874 65.9813 80.5033 66.4571 81.226 66.6525L94.8514 70.3192C95.2093 70.4161 95.5826 70.4412 95.9502 70.3931C96.3177 70.345 96.6722 70.2246 96.9934 70.0388C97.3146 69.853 97.5962 69.6055 97.8221 69.3103C98.048 69.0152 98.2138 68.6782 98.31 68.3187L101.96 54.6325C102.056 54.273 102.081 53.8981 102.032 53.5291C101.984 53.1601 101.864 52.8043 101.679 52.482C101.494 52.1597 101.247 51.8771 100.953 51.6505C100.659 51.4239 100.324 51.2577 99.9659 51.1613C99.608 51.0649 99.2348 51.0403 98.8674 51.0888C98.5001 51.1374 98.1458 51.2581 97.825 51.4441C97.5041 51.6301 97.2228 51.8778 96.9972 52.173C96.7716 52.4683 96.6061 52.8052 96.5102 53.1647L94.6314 60.2033L80.3459 35.0921V35.0921ZM44.6377 72.025L37.557 73.9348C36.8343 74.1302 36.0639 74.0292 35.4153 73.6541C34.7667 73.2789 34.293 72.6603 34.0985 71.9343C33.904 71.2084 34.0045 70.4345 34.378 69.783C34.7515 69.1315 35.3674 68.6557 36.0901 68.4603L49.7212 64.7937C50.4431 64.5997 51.2122 64.7014 51.8596 65.0765C52.507 65.4516 52.9797 66.0693 53.1741 66.7942L56.8244 80.4804C57.0182 81.2064 56.9169 81.9799 56.5429 82.6309C56.1689 83.2818 55.5527 83.7569 54.83 83.9515C54.1072 84.1462 53.3371 84.0445 52.6891 83.6688C52.041 83.2931 51.568 82.6742 51.3743 81.9482L49.4955 74.9096L35.1366 100.151C34.8916 100.582 34.7635 101.07 34.7652 101.566C34.7669 102.062 34.8982 102.549 35.1461 102.979C35.3941 103.408 35.7498 103.764 36.1779 104.012C36.6059 104.26 37.0912 104.39 37.5853 104.39H56.074C56.8222 104.39 57.5397 104.689 58.0688 105.22C58.5978 105.752 58.895 106.472 58.895 107.224C58.895 107.975 58.5978 108.696 58.0688 109.227C57.5397 109.759 56.8222 110.057 56.074 110.057H37.5853C36.1032 110.057 34.6473 109.665 33.3632 108.922C32.079 108.179 31.0117 107.11 30.2679 105.823C29.5242 104.535 29.1301 103.074 29.125 101.585C29.12 100.097 29.5043 98.6328 30.2394 97.3402L44.6377 72.025V72.025ZM106.079 80.3161C105.9 79.9837 105.657 79.6907 105.364 79.4541C105.071 79.2176 104.733 79.0423 104.372 78.9386C104.01 78.8349 103.631 78.8048 103.258 78.8503C102.885 78.8957 102.524 79.0156 102.198 79.2031C101.871 79.3905 101.585 79.6416 101.357 79.9416C101.128 80.2416 100.962 80.5845 100.867 80.9501C100.772 81.3157 100.751 81.6966 100.806 82.0705C100.86 82.4443 100.987 82.8035 101.182 83.127L110.863 100.151C111.108 100.582 111.236 101.07 111.235 101.566C111.233 102.062 111.102 102.549 110.854 102.979C110.606 103.408 110.25 103.764 109.822 104.012C109.394 104.26 108.909 104.39 108.415 104.39H76.9889L80.6393 100.729C81.1682 100.197 81.4651 99.4758 81.4646 98.7238C81.464 97.9719 81.1661 97.251 80.6364 96.7197C80.3741 96.4566 80.0628 96.248 79.7203 96.1057C79.3777 95.9635 79.0107 95.8904 78.64 95.8907C77.8914 95.8912 77.1737 96.1904 76.6447 96.7225L68.1817 105.223C67.9185 105.486 67.7096 105.798 67.5671 106.142C67.4245 106.485 67.3511 106.854 67.3511 107.227C67.3511 107.599 67.4245 107.968 67.5671 108.312C67.7096 108.655 67.9185 108.968 68.1817 109.23L76.6447 117.731C77.1737 118.263 77.8914 118.562 78.64 118.562C79.0107 118.563 79.3777 118.49 79.7203 118.347C80.0628 118.205 80.3741 117.997 80.6364 117.734C80.8987 117.47 81.1068 117.158 81.2489 116.814C81.391 116.47 81.4643 116.102 81.4646 115.729C81.4648 115.357 81.3921 114.988 81.2505 114.644C81.1089 114.3 80.9012 113.987 80.6393 113.724L76.9889 110.057H108.415C109.897 110.057 111.353 109.665 112.637 108.922C113.921 108.179 114.988 107.11 115.732 105.823C116.476 104.535 116.87 103.074 116.875 101.585C116.88 100.097 116.496 98.6328 115.761 97.3402L106.079 80.3161V80.3161Z" fill="#fff" stroke="#44B273" stroke-width="3" mask="url(#path-2-inside-1_310_1512)"/></svg>