<svg width="84" height="84" viewBox="0 0 84 84" fill="none" xmlns="http://www.w3.org/2000/svg"><path d="M62.88 41.915L58.38 31.415C58.2652 31.1439 58.0731 30.9125 57.8277 30.7498C57.5823 30.5871 57.2944 30.5002 57 30.5H52.5V27.5C52.5 27.1022 52.342 26.7206 52.0607 26.4393C51.7794 26.158 51.3978 26 51 26H22.5C22.1022 26 21.7206 26.158 21.4393 26.4393C21.158 26.7206 21 27.1022 21 27.5V53C21 53.3978 21.158 53.7794 21.4393 54.0607C21.7206 54.342 22.1022 54.5 22.5 54.5H25.71C26.0554 55.7711 26.8095 56.8931 27.8559 57.6931C28.9023 58.4931 30.1828 58.9265 31.5 58.9265C32.8172 58.9265 34.0977 58.4931 35.1441 57.6931C36.1905 56.8931 36.9446 55.7711 37.29 54.5H46.71C47.0554 55.7711 47.8095 56.8931 48.8559 57.6931C49.9023 58.4931 51.1828 58.9265 52.5 58.9265C53.8172 58.9265 55.0977 58.4931 56.1441 57.6931C57.1905 56.8931 57.9446 55.7711 58.29 54.5H61.5C61.8978 54.5 62.2794 54.342 62.5607 54.0607C62.842 53.7794 63 53.3978 63 53V42.5C62.9996 42.2989 62.9588 42.1 62.88 41.915ZM52.5 33.5H56.01L59.22 41H52.5V33.5ZM31.5 56C30.9067 56 30.3266 55.8241 29.8333 55.4944C29.3399 55.1648 28.9554 54.6962 28.7284 54.148C28.5013 53.5999 28.4419 52.9967 28.5576 52.4147C28.6734 51.8328 28.9591 51.2982 29.3787 50.8787C29.7982 50.4591 30.3328 50.1734 30.9147 50.0576C31.4967 49.9419 32.0999 50.0013 32.6481 50.2284C33.1962 50.4554 33.6648 50.8399 33.9944 51.3333C34.3241 51.8266 34.5 52.4067 34.5 53C34.5 53.7956 34.1839 54.5587 33.6213 55.1213C33.0587 55.6839 32.2956 56 31.5 56ZM46.71 51.5H37.29C36.9446 50.2289 36.1905 49.1069 35.1441 48.3069C34.0977 47.5069 32.8172 47.0735 31.5 47.0735C30.1828 47.0735 28.9023 47.5069 27.8559 48.3069C26.8095 49.1069 26.0554 50.2289 25.71 51.5H24V29H49.5V47.84C48.817 48.2364 48.2189 48.7638 47.7401 49.3919C47.2614 50.0199 46.9113 50.7363 46.71 51.5ZM52.5 56C51.9067 56 51.3266 55.8241 50.8333 55.4944C50.3399 55.1648 49.9554 54.6962 49.7284 54.148C49.5013 53.5999 49.4419 52.9967 49.5576 52.4147C49.6734 51.8328 49.9591 51.2982 50.3787 50.8787C50.7982 50.4591 51.3328 50.1734 51.9147 50.0576C52.4967 49.9419 53.0999 50.0013 53.6481 50.2284C54.1962 50.4554 54.6648 50.8399 54.9944 51.3333C55.3241 51.8266 55.5 52.4067 55.5 53C55.5 53.7956 55.1839 54.5587 54.6213 55.1213C54.0587 55.6839 53.2957 56 52.5 56ZM60 51.5H58.29C57.9583 50.2153 57.2101 49.0768 56.1625 48.2625C55.1148 47.4483 53.8268 47.0043 52.5 47V44H60V51.5Z" fill="#44B273"/><rect x="1" y="1" width="82" height="82" rx="4" stroke="#44B273" stroke-width="2"/></svg>