<svg width="45" height="45" viewBox="0 0 45 45" fill="none" xmlns="http://www.w3.org/2000/svg"><path d="M7.14579 3.52432L7.27903 3.18333H6.91294H4.84995C4.55687 3.18333 4.27227 3.05932 4.05981 2.83275C3.84684 2.60563 3.72462 2.29435 3.72462 1.96667C3.72462 1.63898 3.84684 1.3277 4.05981 1.10058C4.27227 0.87401 4.55687 0.75 4.84995 0.75H40.6084C40.9015 0.75 41.1861 0.87401 41.3986 1.10058C41.6115 1.3277 41.7338 1.63899 41.7338 1.96667C41.7338 2.29435 41.6115 2.60563 41.3986 2.83275C41.1861 3.05932 40.9015 3.18333 40.6084 3.18333H38.5454H38.1794L38.3126 3.52432L44.2898 18.8217L44.2903 18.823C44.4265 19.1658 44.491 19.5369 44.4791 19.91C44.3942 22.1198 43.5114 24.2059 42.0197 25.7331C40.5283 27.2599 38.5443 28.1095 36.4838 28.1095C34.4233 28.1095 32.4394 27.2599 30.948 25.7331C29.4562 24.2058 28.5733 22.1195 28.4886 19.9095C28.4758 19.5366 28.5395 19.1655 28.6749 18.8224L28.6752 18.8217L34.6523 3.52432L34.7856 3.18333H34.4195H24.1045H23.8545V3.43333V32.7667V33.0167H24.1045H33.7318C35.1192 33.0167 36.4532 33.6042 37.4394 34.656C38.4262 35.7083 38.9831 37.1387 38.9831 38.6333C38.9831 40.128 38.4262 41.5584 37.4394 42.6107C36.4532 43.6624 35.1192 44.25 33.7318 44.25H11.7266C10.3392 44.25 9.00517 43.6624 8.01893 42.6107C7.03219 41.5584 6.47528 40.128 6.47528 38.6333C6.47528 37.1387 7.03219 35.7083 8.01893 34.656C9.00517 33.6042 10.3392 33.0167 11.7266 33.0167H21.3539H21.6039V32.7667V3.43333V3.18333H21.3539H11.0389H10.6728L10.8061 3.52432L16.7832 18.8217L16.7837 18.8229C16.9198 19.1658 16.9844 19.5367 16.9725 19.9097C16.8877 22.1196 16.0049 24.2059 14.5132 25.7331C13.0218 27.2599 11.0378 28.1095 8.9773 28.1095C6.91679 28.1095 4.93286 27.2599 3.44145 25.7331C1.94968 24.2059 1.06684 22.1196 0.982058 19.9096C0.969341 19.5366 1.03306 19.1655 1.16835 18.8224L1.16863 18.8217L7.14579 3.52432ZM3.64791 20.7833H3.33004L3.40496 21.0923C3.72258 22.402 4.43988 23.5652 5.44749 24.3973C6.45542 25.2297 7.69648 25.6832 8.97589 25.6833H8.97596C10.2554 25.6832 11.4964 25.2297 12.5044 24.3973C13.512 23.5652 14.2293 22.402 14.5469 21.0923L14.6218 20.7833H14.3039H3.64791ZM9.20879 5.68902L8.97593 5.09305L8.74307 5.68902L3.92943 18.009L3.7962 18.35H4.16229H13.7896H14.1557L14.0224 18.009L9.20879 5.68902ZM41.2961 18.35H41.6622L41.529 18.009L36.7153 5.68902L36.4825 5.09305L36.2496 5.68902L31.436 18.009L31.3027 18.35H31.6688H41.2961ZM31.1544 20.7833H30.837L30.9114 21.0919C31.2275 22.4031 31.9443 23.5679 32.9521 24.4013C33.9602 25.2349 35.2021 25.6891 36.4825 25.6891C37.7628 25.6891 39.0047 25.2349 40.0128 24.4013C41.0207 23.5679 41.7374 22.4031 42.0535 21.0919L42.1279 20.7833H41.8105H31.1544ZM33.7318 35.45H11.7266C10.9254 35.45 10.1605 35.7896 9.59921 36.3881C9.03841 36.9862 8.72593 37.7941 8.72593 38.6333C8.72593 39.4726 9.03841 40.2805 9.59921 40.8785C10.1605 41.4771 10.9254 41.8167 11.7266 41.8167H33.7318C34.533 41.8167 35.2979 41.4771 35.8592 40.8785C36.42 40.2805 36.7325 39.4726 36.7325 38.6333C36.7325 37.7941 36.42 36.9862 35.8592 36.3881C35.2979 35.7896 34.533 35.45 33.7318 35.45Z" fill="#fff" stroke="#44B273" stroke-width=".5"/></svg>