<svg width="262" height="250" viewBox="0 0 262 250" fill="none" xmlns="http://www.w3.org/2000/svg">
<path opacity="0.08" d="M13.9068 0.373795L31.1718 9.32338C60.6918 25.1132 93.4901 33.5362 126.894 33.9103C162.099 33.6378 196.56 43.7923 226.105 63.1483C241.829 73.0164 254.863 86.7605 264.014 103.135C273.169 119.505 278.155 137.985 278.519 156.888C279.042 175.092 275.97 193.245 269.488 210.258C263.005 227.27 253.243 242.798 240.784 255.914C241.203 259.307 241.621 262.704 241.891 266.074C244.011 293.798 242.927 321.698 238.664 349.204L208.33 344.63C210.299 321.885 210.686 299.042 209.484 276.263C186.692 284.711 162.198 287.081 138.333 283.144C116.033 279.769 94.6539 271.849 75.452 259.862C-32.3652 192.039 8.08672 26.6292 9.1396 19.6462L13.9068 0.373795ZM91.5863 233.101C128.578 256.288 176.344 260.477 206.089 243.224C203.916 227.208 199.989 211.499 194.382 196.399C189.899 185.468 184.235 175.085 177.484 165.453C170.578 155.705 162.468 146.909 153.355 139.286C134.531 123.475 112.794 111.677 89.4055 104.575L91.7446 89.062C119.407 92.2344 145.89 102.104 168.997 117.845C192.553 134.399 211.208 157.232 222.948 183.889C227.262 194.046 230.868 204.503 233.741 215.187C243.544 197.855 248.554 178.149 248.23 158.19C248.149 144.241 244.593 130.568 237.899 118.452C231.204 106.341 221.59 96.1882 209.961 88.9557C193.132 77.5545 174.017 70.1199 153.988 67.1888C144.584 65.7709 135.19 65.3065 125.366 64.6206C94.3618 64.05 63.7754 57.5555 35.1822 45.4678C29.7902 88.4449 22.2866 189.651 91.5863 233.101Z" fill="white"/>
</svg>
