<?xml version="1.0" encoding="UTF-8"?> <svg xmlns="http://www.w3.org/2000/svg" width="39" height="47" viewBox="0 0 39 47" fill="none"><path d="M4.93392 43.9675C4.72473 43.9286 4.54388 43.8611 4.32604 43.757C2.259 42.8003 1.80318 40.2516 3.36694 38.543L3.36689 38.543L3.37069 38.539C3.46056 38.4451 3.55204 38.3329 3.62578 38.2301C3.69899 38.128 3.74066 38.0545 3.75395 38.0228C3.75417 38.0215 3.75441 38.02 3.75467 38.0183C3.75684 38.0041 3.75945 37.9824 3.7623 37.9516C3.76796 37.8904 3.77358 37.8042 3.77899 37.6933C3.78977 37.472 3.79927 37.1617 3.80712 36.776C3.8228 36.0052 3.83179 34.9394 3.83179 33.6951V29.5236V22.4391C3.83179 21.6317 3.82778 20.563 3.82378 19.4959C3.82179 18.9653 3.8198 18.4352 3.81831 17.9379C3.81606 17.1894 3.81493 16.515 3.81662 16.0258C3.81746 15.7814 3.81901 15.5821 3.82151 15.4426C3.82275 15.3733 3.82425 15.3166 3.82613 15.276C3.82704 15.2563 3.8282 15.2367 3.82986 15.2201C3.83027 15.216 3.83088 15.2103 3.83179 15.2037V12.181C3.83179 11.3013 3.82281 10.5148 3.80716 9.93334C3.79932 9.64233 3.78986 9.40462 3.77917 9.23304C3.77381 9.14693 3.7683 9.08017 3.76286 9.0328C3.76013 9.00897 3.75773 8.99279 3.75591 8.98289C3.7558 8.9823 3.75569 8.98174 3.75559 8.98123C3.74441 8.9521 3.70234 8.87658 3.62578 8.76981C3.55204 8.66699 3.46056 8.55486 3.37069 8.4609L3.37065 8.46095L3.36675 8.45669C1.63832 6.5641 2.43195 3.65397 4.89232 3.0291L4.89431 3.02862C5.17089 2.96078 5.5527 2.95391 5.91176 2.98528C6.27084 3.01666 6.64575 3.08965 6.90659 3.20442L6.9066 3.20439L6.91007 3.20598C7.14514 3.31372 7.47915 3.52336 7.66819 3.68255L7.67364 3.68714L7.67881 3.69203C7.82525 3.83033 8.11416 4.04372 8.30554 4.1805L8.58978 4.36999H19.3656H30.1414L30.4256 4.18048C30.617 4.04371 30.9059 3.83033 31.0523 3.69203L31.0521 3.69178L31.0621 3.6833C31.3498 3.43877 31.637 3.2611 31.9669 3.14652C32.2954 3.0324 32.6531 2.98546 33.076 2.98546C33.3704 2.98546 33.5922 2.99419 33.7972 3.03239C34.0065 3.07138 34.1873 3.13889 34.4052 3.24302C36.4722 4.19969 36.928 6.74837 35.3642 8.45689L35.3643 8.45693L35.3605 8.4609C35.2706 8.55486 35.1791 8.66699 35.1054 8.76981C35.0288 8.87657 34.9868 8.9521 34.9756 8.98122C34.9755 8.98174 34.9754 8.9823 34.9753 8.98289C34.9734 8.99279 34.971 9.00897 34.9683 9.0328C34.9629 9.08017 34.9573 9.14693 34.952 9.23304C34.9413 9.40462 34.9318 9.64233 34.924 9.93334C34.9083 10.5148 34.8994 11.3013 34.8994 12.181V15.2287V15.2294L34.8814 22.3935V22.3948L34.8994 29.5229V29.5236V33.6951C34.8994 34.9394 34.9084 36.0052 34.924 36.776C34.9319 37.1617 34.9414 37.472 34.9522 37.6933C34.9576 37.8042 34.9632 37.8904 34.9689 37.9516C34.9717 37.9824 34.9743 38.0041 34.9765 38.0183C34.9768 38.02 34.977 38.0215 34.9772 38.0228C34.9905 38.0545 35.0322 38.128 35.1054 38.2301C35.1791 38.3329 35.2706 38.4451 35.3605 38.539L35.3605 38.539L35.3642 38.543C36.928 40.2516 36.4722 42.8003 34.4051 43.757C34.1873 43.8611 34.0064 43.9286 33.7972 43.9675C33.5922 44.0057 33.3704 44.0145 33.076 44.0145C32.6531 44.0145 32.2954 43.9675 31.9669 43.8534C31.637 43.7388 31.3498 43.5612 31.0621 43.3166L31.0619 43.3169L31.0523 43.3079C30.9059 43.1696 30.617 42.9562 30.4257 42.8195L30.1414 42.6299H19.3656H8.58978L8.30549 42.8195C8.11412 42.9562 7.82524 43.1696 7.67881 43.3079L7.67905 43.3081L7.66907 43.3166C7.38139 43.5612 7.0942 43.7388 6.76431 43.8534C6.43575 43.9675 6.07804 44.0145 5.65512 44.0145C5.36071 44.0145 5.13893 44.0057 4.93392 43.9675ZM0.401376 4.73688L0.401251 4.73729C0.295061 5.08854 0.250178 5.49982 0.25012 6.19198C0.254617 6.60844 0.265897 6.86771 0.299189 7.09555C0.332016 7.32022 0.387419 7.52205 0.488674 7.82141L0.488726 7.82156C0.604689 8.16516 0.78273 8.55879 0.963829 8.89262C1.05419 9.0592 1.14356 9.20763 1.22425 9.32539C1.30832 9.44809 1.37205 9.52122 1.4092 9.55194L1.41128 9.55371C1.47424 9.60698 1.49868 9.67601 1.5084 9.70603C1.521 9.7449 1.52962 9.78843 1.53634 9.83287C1.54994 9.92281 1.5607 10.0513 1.56985 10.2299C1.58826 10.5894 1.60149 11.1818 1.61104 12.1425C1.63016 14.0658 1.63465 17.4814 1.63465 23.5C1.63465 29.5186 1.63016 32.9342 1.61104 34.8574C1.60149 35.8181 1.58826 36.4106 1.56985 36.77C1.5607 36.9486 1.54994 37.0771 1.53634 37.1671C1.52962 37.2115 1.521 37.255 1.5084 37.2939C1.49868 37.3239 1.47424 37.3929 1.41128 37.4462L1.40919 37.448C1.37205 37.4787 1.30832 37.5518 1.22425 37.6745C1.14356 37.7923 1.05419 37.9407 0.963829 38.1073C0.78273 38.4411 0.604689 38.8348 0.488726 39.1784L0.488674 39.1785C0.387419 39.4779 0.332016 39.6797 0.299189 39.9044C0.265879 40.1323 0.254604 40.3918 0.250113 40.8086C0.24163 42.385 0.708563 43.4997 1.83234 44.6408C3.72265 46.5569 6.70344 46.7893 8.87846 45.1903L8.87925 45.1897L9.3108 44.8751L9.37662 44.8271H9.45809H19.3656H29.2731H29.3545L29.4204 44.8751L29.8519 45.1897L29.8527 45.1903C32.0277 46.7893 35.0083 46.5569 36.8987 44.6409C38.0226 43.4997 38.4896 42.385 38.481 40.8085C38.4766 40.3917 38.4653 40.1323 38.432 39.9044C38.3991 39.6797 38.3437 39.4779 38.2425 39.1785L38.2424 39.1784C38.1265 38.8348 37.9484 38.4411 37.7673 38.1073C37.677 37.9407 37.5876 37.7923 37.5069 37.6745C37.4228 37.5518 37.3591 37.4787 37.322 37.448L37.3199 37.4462C37.2569 37.3929 37.2325 37.3239 37.2228 37.2939C37.2102 37.255 37.2015 37.2115 37.1948 37.1671C37.1812 37.0771 37.1705 36.9486 37.1613 36.77C37.1429 36.4106 37.1297 35.8181 37.1201 34.8574C37.101 32.9342 37.0965 29.5186 37.0965 23.5C37.0965 17.4814 37.101 14.0658 37.1201 12.1425C37.1297 11.1818 37.1429 10.5894 37.1613 10.2299C37.1705 10.0513 37.1812 9.92281 37.1948 9.83287C37.2015 9.78843 37.2102 9.7449 37.2228 9.70603C37.2325 9.67601 37.2569 9.60698 37.3199 9.5537L37.322 9.55196C37.3591 9.52122 37.4228 9.44809 37.5069 9.32539C37.5876 9.20763 37.677 9.0592 37.7673 8.89262C37.9484 8.55879 38.1265 8.16516 38.2424 7.82156L38.2425 7.82141C38.3437 7.52205 38.3991 7.32022 38.432 7.09555C38.4653 6.86761 38.4766 6.60822 38.481 6.19143C38.4896 4.61491 38.0226 3.5002 36.8987 2.359C35.0083 0.44305 32.0277 0.210625 29.8527 1.80961L29.8519 1.81018L29.4204 2.12485L29.3545 2.17285H29.2731H19.3656H9.45809H9.37662L9.3108 2.12485L8.87925 1.81018L8.87901 1.81001C7.6324 0.898693 5.99708 0.546249 4.49446 0.872532L4.49387 0.872658C2.61814 1.27521 0.978736 2.81522 0.401376 4.73688Z" fill="white" stroke="#44B273" stroke-width="0.5"></path><g clip-path="url(#clip0_384_344)"><path d="M22.7618 20.9843L28.1381 15.6411L28.1206 18.6699C28.1149 18.9224 28.3152 19.142 28.5681 19.1364L28.8887 19.1361C29.1415 19.1302 29.3506 18.9799 29.3559 18.7274L29.369 14.2155C29.369 14.2111 29.3518 14.2077 29.3518 14.2033L29.3765 13.9746C29.379 13.8477 29.3493 13.7346 29.2674 13.6537C29.1865 13.5721 29.0731 13.5224 28.9471 13.5258L28.7187 13.5312C28.7143 13.5312 28.7109 13.5327 28.7062 13.5334L24.224 13.5137C23.9715 13.5193 23.7625 13.728 23.7569 13.9809L23.7562 14.3015C23.7947 14.5993 24.0287 14.7734 24.2812 14.7678L27.2353 14.7756L21.8781 20.1003C21.634 20.3443 21.634 20.7399 21.8781 20.9843C22.1222 21.2281 22.5178 21.2281 22.7618 20.9843ZM15.9881 26.0161L10.6118 31.3427L10.629 28.3305C10.635 28.0777 10.4343 27.858 10.1818 27.8636L9.84153 27.8642C9.5884 27.8705 9.37963 28.0205 9.37432 28.2733L9.3612 32.7852C9.3612 32.7895 9.37838 32.7923 9.37838 32.7973L9.3537 33.0255C9.35088 33.1523 9.38057 33.2661 9.46276 33.3464C9.54338 33.4283 9.65713 33.4777 9.78276 33.4745L10.0115 33.4689C10.0159 33.4689 10.019 33.467 10.024 33.467L14.5259 33.4867C14.7784 33.4805 14.9871 33.2717 14.9931 33.0192L14.9937 32.6983C14.9553 32.4011 14.7212 32.2264 14.4687 32.232L11.5146 32.2242L16.8715 26.9002C17.1156 26.6561 17.1156 26.2605 16.8715 26.0164C16.6274 25.7724 16.2321 25.772 15.9881 26.0161ZM29.3694 32.7849L29.3562 28.2729C29.3506 28.0201 29.1415 27.8701 28.889 27.8639L28.5684 27.8633C28.3156 27.8576 28.1156 28.0776 28.1209 28.3301L28.1384 31.3589L22.7619 26.0161C22.5178 25.772 22.1222 25.772 21.8781 26.0161C21.634 26.2601 21.634 26.6557 21.8781 26.8998L27.235 32.2239L24.2812 32.2317C24.0287 32.2261 23.7947 32.4008 23.7562 32.6979L23.7569 33.0189C23.7628 33.2717 23.9719 33.4804 24.224 33.4864L28.7065 33.4667C28.7112 33.4667 28.7147 33.4686 28.719 33.4686L28.9475 33.4742C29.0734 33.4773 29.1872 33.4279 29.2678 33.3461C29.3497 33.2654 29.379 33.152 29.3769 33.0251L29.3522 32.797C29.3522 32.792 29.3694 32.7892 29.3694 32.7849ZM11.5147 14.7761L14.469 14.7683C14.7215 14.7739 14.9556 14.5996 14.994 14.302L14.9934 13.9811C14.9871 13.7283 14.7783 13.5192 14.5262 13.5139L10.024 13.5333C10.019 13.5327 10.0159 13.5311 10.0115 13.5311L9.78276 13.5258C9.65715 13.5224 9.54309 13.5721 9.46276 13.6536C9.38057 13.7345 9.3509 13.8477 9.3537 13.9745L9.37838 14.2033C9.37838 14.2076 9.3612 14.2108 9.3612 14.2155L9.37432 18.7273C9.37995 18.9798 9.58872 19.1302 9.84153 19.1361L10.1818 19.1364C10.4343 19.142 10.6346 18.9223 10.629 18.6698L10.6118 15.6576L15.9881 20.9842C16.2318 21.2283 16.6278 21.2283 16.8719 20.9842C17.1159 20.7401 17.1159 20.3442 16.8719 20.1001L11.5147 14.7761Z" fill="white"></path></g><defs><clipPath id="clip0_384_344"><rect width="20" height="20" fill="white" transform="translate(9.36523 13.5)"></rect></clipPath></defs></svg> 