<svg xmlns="http://www.w3.org/2000/svg" style="border: 0 !important; clip: rect(0 0 0 0) !important; height: 1px !important; margin: -1px !important; overflow: hidden !important; padding: 0 !important; position: absolute !important; width: 1px !important;" class="root-svg-symbols-element">
  <defs>
      <clipPath id="clip0_310_1176"><path fill="#fff" d="M0 0H904.849V412H0z"/></clipPath>
<filter id="filter0_d_152_1035" x="0" y="0" width="165" height="165" filterUnits="userSpaceOnUse" color-interpolation-filters="sRGB"><feFlood flood-opacity="0" result="BackgroundImageFix"/><feColorMatrix in="SourceAlpha" values="0 0 0 0 0 0 0 0 0 0 0 0 0 0 0 0 0 0 127 0" result="hardAlpha"/><feOffset dy="15"/><feGaussianBlur stdDeviation="15"/><feComposite in2="hardAlpha" operator="out"/><feColorMatrix values="0 0 0 0 0 0 0 0 0 0 0 0 0 0 0 0 0 0 0.15 0"/><feBlend in2="BackgroundImageFix" result="effect1_dropShadow_152_1035"/><feBlend in="SourceGraphic" in2="effect1_dropShadow_152_1035" result="shape"/></filter>
<clipPath id="clip0_310_939"><path fill="#fff" transform="translate(7.11 7.11)" d="M0 0H20.781V20.781H0z"/></clipPath>
  </defs>
    <symbol id="arrow" viewBox="0 0 27 24">
      <path d="M26.0607 13.0607C26.6464 12.4749 26.6464 11.5251 26.0607 10.9393L16.5147 1.3934C15.9289 0.807613 14.9792 0.807613 14.3934 1.3934C13.8076 1.97919 13.8076 2.92893 14.3934 3.51472L22.8787 12L14.3934 20.4853C13.8076 21.0711 13.8076 22.0208 14.3934 22.6066C14.9792 23.1924 15.9289 23.1924 16.5147 22.6066L26.0607 13.0607ZM-1.31134e-07 13.5L25 13.5L25 10.5L1.31134e-07 10.5L-1.31134e-07 13.5Z" fill="#fff"/>
    </symbol>
    <symbol id="close-icon" viewBox="0 0 20 20">
      <path d="M1 1L18.5 18.5M18.5 1L1 18.5" stroke="#000" stroke-width="2"/>
    </symbol>
    <symbol id="email-icon" viewBox="0 0 35 35">
      <path d="M7.56575 26.9792C6.90153 26.9792 6.33311 26.7429 5.86051 26.2703C5.3871 25.7968 5.15039 25.228 5.15039 24.5638V10.0716C5.15039 9.40739 5.3871 8.83897 5.86051 8.36637C6.33311 7.89296 6.90153 7.65625 7.56575 7.65625H26.8887C27.5529 7.65625 28.1217 7.89296 28.5951 8.36637C29.0677 8.83897 29.304 9.40739 29.304 10.0716V24.5638C29.304 25.228 29.0677 25.7968 28.5951 26.2703C28.1217 26.7429 27.5529 26.9792 26.8887 26.9792H7.56575ZM17.2272 18.314C17.3279 18.314 17.4333 18.2988 17.5436 18.2682C17.6547 18.2384 17.7606 18.1933 17.8612 18.1329L26.4056 12.7889C26.5666 12.6883 26.6874 12.5627 26.7679 12.4121C26.8484 12.2607 26.8887 12.0945 26.8887 11.9133C26.8887 11.5108 26.7176 11.2088 26.3754 11.0076C26.0332 10.8063 25.681 10.8164 25.3187 11.0378L17.2272 16.11L9.13574 11.0378C8.77344 10.8164 8.4212 10.8111 8.07902 11.0221C7.73684 11.2338 7.56575 11.5309 7.56575 11.9133C7.56575 12.1146 7.60601 12.2905 7.68652 12.4411C7.76704 12.5925 7.8878 12.7084 8.04883 12.7889L16.5932 18.1329C16.6938 18.1933 16.7997 18.2384 16.9108 18.2682C17.0211 18.2988 17.1266 18.314 17.2272 18.314V18.314Z" fill="#44B273"/>
    </symbol>
    <symbol id="error-icon" viewBox="0 0 30 30">
      <path d="M15.001 15L21.5548 21.5538M8.44727 21.5538L15.001 15L8.44727 21.5538ZM21.5548 8.44629L14.9998 15L21.5548 8.44629ZM14.9998 15L8.44727 8.44629L14.9998 15Z" stroke="#EB5757" stroke-width="2" stroke-linecap="round" stroke-linejoin="round"/>
    </symbol>
    <symbol id="menu-icon" viewBox="0 0 46 46">
      <path d="M38.4292 21.083H7.57083C6.56521 21.083 5.75 21.8982 5.75 22.9038V23.0955C5.75 24.1011 6.56521 24.9163 7.57083 24.9163H38.4292C39.4348 24.9163 40.25 24.1011 40.25 23.0955V22.9038C40.25 21.8982 39.4348 21.083 38.4292 21.083Z" fill="#44B273"/><path d="M38.4292 30.667H7.57083C6.56521 30.667 5.75 31.4822 5.75 32.4878V32.6795C5.75 33.6851 6.56521 34.5003 7.57083 34.5003H38.4292C39.4348 34.5003 40.25 33.6851 40.25 32.6795V32.4878C40.25 31.4822 39.4348 30.667 38.4292 30.667Z" fill="#44B273"/><path d="M38.4292 11.5H7.57083C6.56521 11.5 5.75 12.3152 5.75 13.3208V13.5125C5.75 14.5181 6.56521 15.3333 7.57083 15.3333H38.4292C39.4348 15.3333 40.25 14.5181 40.25 13.5125V13.3208C40.25 12.3152 39.4348 11.5 38.4292 11.5Z" fill="#44B273"/>
    </symbol>
    <symbol id="phone-icon" viewBox="0 0 35 35">
      <path d="M26.5879 27.8906C15.5076 27.9062 7.0977 19.3963 7.10939 8.4121C7.10939 7.69385 7.69126 7.10938 8.40821 7.10938H11.8371C12.48 7.10938 13.0268 7.58215 13.1217 8.21857C13.3478 9.74477 13.7918 11.2306 14.44 12.6307L14.5737 12.919C14.6636 13.1131 14.6829 13.3324 14.6284 13.5391C14.5739 13.7459 14.4489 13.9271 14.275 14.0516C13.2126 14.8101 12.8073 16.3362 13.6347 17.526C14.6763 19.0239 15.9764 20.3244 17.474 21.3666C18.6651 22.1926 20.1912 21.7874 20.9484 20.7263C21.0727 20.5519 21.2541 20.4264 21.4612 20.3716C21.6682 20.3169 21.8879 20.3362 22.0823 20.4262L22.3693 20.5587C23.7694 21.2081 25.2553 21.6523 26.7814 21.8783C27.4179 21.9731 27.8906 22.52 27.8906 23.1642V26.5918C27.8906 26.7624 27.857 26.9315 27.7916 27.0891C27.7263 27.2468 27.6305 27.39 27.5097 27.5106C27.389 27.6313 27.2457 27.7269 27.0879 27.7921C26.9302 27.8573 26.7612 27.8908 26.5905 27.8906H26.5879Z" fill="#44B273"/>
    </symbol>
    <symbol id="play-icon" viewBox="0 0 378 378">
      <circle cx="189" cy="189" r="187" stroke="currentColor" stroke-width="4"/><path d="M141.474 114.735L270.105 189L141.474 263.265L141.474 114.735Z" fill="currentColor" stroke="currentColor"/>
    </symbol>
    <symbol id="product-bg-1" viewBox="0 0 262 250">
      <path opacity=".08" d="M13.9068 0.373795L31.1718 9.32338C60.6918 25.1132 93.4901 33.5362 126.894 33.9103C162.099 33.6378 196.56 43.7923 226.105 63.1483C241.829 73.0164 254.863 86.7605 264.014 103.135C273.169 119.505 278.155 137.985 278.519 156.888C279.042 175.092 275.97 193.245 269.488 210.258C263.005 227.27 253.243 242.798 240.784 255.914C241.203 259.307 241.621 262.704 241.891 266.074C244.011 293.798 242.927 321.698 238.664 349.204L208.33 344.63C210.299 321.885 210.686 299.042 209.484 276.263C186.692 284.711 162.198 287.081 138.333 283.144C116.033 279.769 94.6539 271.849 75.452 259.862C-32.3652 192.039 8.08672 26.6292 9.1396 19.6462L13.9068 0.373795ZM91.5863 233.101C128.578 256.288 176.344 260.477 206.089 243.224C203.916 227.208 199.989 211.499 194.382 196.399C189.899 185.468 184.235 175.085 177.484 165.453C170.578 155.705 162.468 146.909 153.355 139.286C134.531 123.475 112.794 111.677 89.4055 104.575L91.7446 89.062C119.407 92.2344 145.89 102.104 168.997 117.845C192.553 134.399 211.208 157.232 222.948 183.889C227.262 194.046 230.868 204.503 233.741 215.187C243.544 197.855 248.554 178.149 248.23 158.19C248.149 144.241 244.593 130.568 237.899 118.452C231.204 106.341 221.59 96.1882 209.961 88.9557C193.132 77.5545 174.017 70.1199 153.988 67.1888C144.584 65.7709 135.19 65.3065 125.366 64.6206C94.3618 64.05 63.7754 57.5555 35.1822 45.4678C29.7902 88.4449 22.2866 189.651 91.5863 233.101Z" fill="#fff"/>
    </symbol>
    <symbol id="product-bg-2" viewBox="0 0 860 295">
      <g clip-path="url(#clip0_310_1176)" stroke="#fff" opacity=".08"><path d="M107.646 0V412" stroke-width="5"/><path d="M240.61 0V412" stroke-width="5"/><path d="M373.574 0V412" stroke-width="5"/><path d="M0 92.864H904.849" stroke-width="5"/><path d="M0 205.614H904.849" stroke-width="5"/><path d="M506.538 0V412" stroke-width="5"/><path d="M639.502 0V412" stroke-width="5"/><path d="M772.466 0V412" stroke-width="5"/><path d="M108.987 85.0166L116.123 92.1458C116.691 92.7141 116.691 93.6342 116.123 94.2025L108.987 101.332C108.418 101.899 107.497 101.899 106.928 101.332L99.7914 94.2025C99.2232 93.6342 99.2232 92.7141 99.7914 92.1458L106.928 85.0166C107.497 84.4489 108.418 84.4489 108.987 85.0166Z" fill="#fff"/><path d="M241.95 85.0166L249.086 92.1458C249.654 92.7141 249.654 93.6342 249.086 94.2025L241.95 101.332C241.381 101.899 240.46 101.899 239.891 101.332L232.754 94.2025C232.186 93.6342 232.186 92.7141 232.754 92.1458L239.891 85.0166C240.46 84.4489 241.381 84.4489 241.95 85.0166Z" fill="#fff"/><path d="M374.913 85.0166L382.05 92.1458C382.618 92.7141 382.618 93.6342 382.05 94.2025L374.913 101.332C374.345 101.899 373.424 101.899 372.855 101.332L365.718 94.2025C365.15 93.6342 365.15 92.7141 365.718 92.1458L372.855 85.0166C373.424 84.4489 374.345 84.4489 374.913 85.0166Z" fill="#fff"/><path d="M507.879 85.0166L515.017 92.1458C515.582 92.7141 515.582 93.6342 515.017 94.2025L507.879 101.332C507.308 101.899 506.388 101.899 505.818 101.332L498.679 94.2025C498.115 93.6342 498.115 92.7141 498.679 92.1458L505.818 85.0166C506.388 84.4489 507.308 84.4489 507.879 85.0166Z" fill="#fff"/><path d="M640.843 85.0166L647.981 92.1458C648.546 92.7141 648.546 93.6342 647.981 94.2025L640.843 101.332C640.272 101.899 639.352 101.899 638.782 101.332L631.643 94.2025C631.079 93.6342 631.079 92.7141 631.643 92.1458L638.782 85.0166C639.352 84.4489 640.272 84.4489 640.843 85.0166Z" fill="#fff"/><path d="M773.807 85.0166L780.945 92.1458C781.51 92.7141 781.51 93.6342 780.945 94.2025L773.807 101.332C773.236 101.899 772.316 101.899 771.745 101.332L764.607 94.2025C764.042 93.6342 764.042 92.7141 764.607 92.1458L771.745 85.0166C772.316 84.4489 773.236 84.4489 773.807 85.0166Z" fill="#fff"/><path d="M108.987 198.152L116.123 205.282C116.691 205.85 116.691 206.77 116.123 207.338L108.987 214.467C108.418 215.035 107.497 215.035 106.928 214.467L99.7914 207.338C99.2232 206.77 99.2232 205.85 99.7914 205.282L106.928 198.152C107.497 197.585 108.418 197.585 108.987 198.152Z" fill="#fff"/><path d="M241.95 198.152L249.086 205.282C249.654 205.85 249.654 206.77 249.086 207.338L241.95 214.467C241.381 215.035 240.46 215.035 239.891 214.467L232.754 207.338C232.186 206.77 232.186 205.85 232.754 205.282L239.891 198.152C240.46 197.585 241.381 197.585 241.95 198.152Z" fill="#fff"/><path d="M374.913 198.152L382.05 205.282C382.618 205.85 382.618 206.77 382.05 207.338L374.913 214.467C374.345 215.035 373.424 215.035 372.855 214.467L365.718 207.338C365.15 206.77 365.15 205.85 365.718 205.282L372.855 198.152C373.424 197.585 374.345 197.585 374.913 198.152Z" fill="#fff"/><path d="M507.879 198.152L515.017 205.282C515.582 205.85 515.582 206.77 515.017 207.338L507.879 214.467C507.308 215.035 506.388 215.035 505.818 214.467L498.679 207.338C498.115 206.77 498.115 205.85 498.679 205.282L505.818 198.152C506.388 197.585 507.308 197.585 507.879 198.152Z" fill="#fff"/><path d="M640.843 198.152L647.981 205.282C648.546 205.85 648.546 206.77 647.981 207.338L640.843 214.467C640.272 215.035 639.352 215.035 638.782 214.467L631.643 207.338C631.079 206.77 631.079 205.85 631.643 205.282L638.782 198.152C639.352 197.585 640.272 197.585 640.843 198.152Z" fill="#fff"/><path d="M773.807 198.152L780.945 205.282C781.51 205.85 781.51 206.77 780.945 207.338L773.807 214.467C773.236 215.035 772.316 215.035 771.745 214.467L764.607 207.338C764.042 206.77 764.042 205.85 764.607 205.282L771.745 198.152C772.316 197.585 773.236 197.585 773.807 198.152Z" fill="#fff"/></g>
    </symbol>
    <symbol id="slider-arrow" viewBox="0 0 165 165">
      <g filter="url(#filter0_d_152_1035)"><circle cx="82.5" cy="67.5" r="52.5" fill="#fff"/><circle cx="82.5" cy="67.5" r="50.5" stroke="#44B273" stroke-width="4"/></g><path d="M60.9393 66.9393C60.3536 67.5251 60.3536 68.4749 60.9393 69.0607L70.4853 78.6066C71.0711 79.1924 72.0208 79.1924 72.6066 78.6066C73.1924 78.0208 73.1924 77.0711 72.6066 76.4853L64.1213 68L72.6066 59.5147C73.1924 58.9289 73.1924 57.9792 72.6066 57.3934C72.0208 56.8076 71.0711 56.8076 70.4853 57.3934L60.9393 66.9393ZM103 66.5L62 66.5L62 69.5L103 69.5L103 66.5Z" fill="#000"/>
    </symbol>
    <symbol id="to-top" viewBox="0 0 52 52">
      <circle cx="26" cy="26" r="25" stroke="#121212" stroke-width="2"/><path d="M26.7071 18.2929C26.3166 17.9024 25.6834 17.9024 25.2929 18.2929L18.9289 24.6569C18.5384 25.0474 18.5384 25.6805 18.9289 26.0711C19.3195 26.4616 19.9526 26.4616 20.3431 26.0711L26 20.4142L31.6569 26.0711C32.0474 26.4616 32.6805 26.4616 33.0711 26.0711C33.4616 25.6805 33.4616 25.0474 33.0711 24.6569L26.7071 18.2929ZM27 38L27 19L25 19L25 38L27 38Z" fill="#121212"/>
    </symbol>
    <symbol id="work-icon" viewBox="0 0 35 35">
      <g clip-path="url(#clip0_310_939)"><path d="M17.5 27.8906C11.7608 27.8906 7.10938 23.2392 7.10938 17.5C7.10938 11.7608 11.7608 7.10938 17.5 7.10938C23.2392 7.10938 27.8906 11.7608 27.8906 17.5C27.8906 23.2392 23.2392 27.8906 17.5 27.8906ZM16.5259 17.5C16.5259 17.8247 16.6882 18.1291 16.9602 18.2752L20.8567 20.8729C21.3031 21.2057 21.9079 21.084 22.1717 20.6375C22.5045 20.191 22.3828 19.5862 21.9363 19.2859L18.4741 16.9805V11.98C18.4741 11.4402 18.0398 11.0059 17.4635 11.0059C16.9602 11.0059 16.4893 11.4402 16.4893 11.98L16.5259 17.5Z" fill="#44B273"/></g>
    </symbol></svg>