<svg xmlns="http://www.w3.org/2000/svg" style="border: 0 !important; clip: rect(0 0 0 0) !important; height: 1px !important; margin: -1px !important; overflow: hidden !important; padding: 0 !important; position: absolute !important; width: 1px !important;" class="root-svg-symbols-element">
    <symbol id="close-icon" viewBox="0 0 20 20">
      <path d="M1 1L18.5 18.5M18.5 1L1 18.5" stroke="#000" stroke-width="2"/>
    </symbol>
    <symbol id="contact-1-icon" viewBox="0 0 31 31">
      <path d="M29.4377 24.1384L23.0015 18.2864C22.6972 18.0099 22.2975 17.8624 21.8865 17.8751C21.4756 17.8878 21.0857 18.0597 20.7991 18.3545L17.0102 22.2511C16.0982 22.0769 14.2647 21.5053 12.3773 19.6227C10.49 17.7338 9.91841 15.8956 9.74899 14.9899L13.6424 11.1994C13.9376 10.913 14.1097 10.523 14.1224 10.112C14.1351 9.70091 13.9874 9.30103 13.7105 8.99697L7.86007 2.5623C7.58306 2.25728 7.19805 2.07227 6.78681 2.04655C6.37558 2.02083 5.97052 2.15643 5.65766 2.42455L2.22182 5.37114C1.94808 5.64587 1.78469 6.01152 1.76266 6.39872C1.73891 6.79455 1.28607 16.1711 8.55674 23.4449C14.8996 29.7861 22.8447 30.2501 25.0329 30.2501C25.3527 30.2501 25.5491 30.2406 25.6013 30.2374C25.9885 30.2157 26.3539 30.0516 26.6273 29.7766L29.5723 26.3392C29.8415 26.0274 29.9781 25.6226 29.953 25.2114C29.9278 24.8002 29.7429 24.4151 29.4377 24.1384Z" fill="#FF5F5F"/>
    </symbol>
    <symbol id="contact-2-icon" viewBox="0 0 26 34">
      <path d="M13 0C5.92172 0 0.183594 5.7381 0.183594 12.8164C0.183594 15.1836 0.646928 17.6285 1.97656 19.3906L13 34L24.0234 19.3906C25.2311 17.7901 25.8164 14.9605 25.8164 12.8164C25.8164 5.7381 20.0783 0 13 0ZM13 7.42297C15.9783 7.42297 18.3934 9.83813 18.3934 12.8164C18.3934 15.7947 15.9783 18.2098 13 18.2098C10.0217 18.2098 7.60659 15.7947 7.60659 12.8164C7.60659 9.83813 10.0217 7.42297 13 7.42297Z" fill="#FF5F5F"/>
    </symbol>
    <symbol id="decor-left" viewBox="0 0 100 461">
      <rect x="99" y="1" width="459" height="98" rx="7" transform="rotate(90 99 1)" stroke="#A0D7FF" stroke-width="2"/>
    </symbol>
    <symbol id="menu-icon" viewBox="0 0 25 18">
      <path d="M0 1H25" stroke="#000" stroke-width="2"/><path d="M0 9H25" stroke="#000" stroke-width="2"/><path d="M0 17C7.02944 17 10.9706 17 18 17" stroke="#000" stroke-width="2"/>
    </symbol>
    <symbol id="telegram-icon" viewBox="0 0 33 33">
      <path d="M28.4143 5.11087L4.03557 14.5117C2.37182 15.18 2.38145 16.1081 3.73032 16.522L9.98932 18.4745L24.4708 9.33762C25.1556 8.921 25.7812 9.14512 25.2669 9.60162L13.5341 20.1905H13.5313L13.5341 20.1919L13.1023 26.6434C13.7348 26.6434 14.0139 26.3532 14.3687 26.0109L17.4088 23.0546L23.7324 27.7255C24.8984 28.3676 25.7358 28.0376 26.0259 26.6461L30.1771 7.08262C30.6019 5.379 29.5267 4.60762 28.4143 5.11087Z" fill="currentColor"/>
    </symbol>
    <symbol id="vk-icon" viewBox="0 0 36 21">
      <path fill-rule="evenodd" clip-rule="evenodd" d="M35.1743 1.422C35.4233 0.603 35.1743 0 33.9818 0H30.0444C29.0424 0 28.5804 0.5205 28.3299 1.095C28.3299 1.095 26.3274 5.889 23.491 9.003C22.573 9.906 22.156 10.1925 21.655 10.1925C21.4046 10.1925 21.0281 9.906 21.0281 9.0855V1.422C21.0281 0.438 20.7521 0 19.9181 0H13.7262C13.1007 0 12.7242 0.456 12.7242 0.8895C12.7242 1.821 14.1432 2.037 14.2887 4.659V10.356C14.2887 11.6055 14.0592 11.832 13.5582 11.832C12.2232 11.832 8.97581 7.0155 7.04835 1.5045C6.67486 0.432 6.29687 0 5.29039 0H1.34997C0.224995 0 0 0.5205 0 1.095C0 2.118 1.33497 7.2 6.21737 13.9215C9.4723 18.5115 14.0547 21 18.2291 21C20.7326 21 21.0416 20.448 21.0416 19.4955V16.026C21.0416 14.9205 21.2786 14.7 22.072 14.7C22.657 14.7 23.6575 14.988 25.9945 17.2005C28.6644 19.824 29.1039 21 30.6069 21H34.5443C35.6693 21 36.2332 20.448 35.9092 19.356C35.5523 18.27 34.2773 16.6935 32.5868 14.823C31.6688 13.758 30.2919 12.6105 29.8734 12.036C29.2899 11.2995 29.4564 10.971 29.8734 10.3155C29.8734 10.3155 34.6733 3.6765 35.1728 1.422H35.1743Z" fill="currentColor"/>
    </symbol>
    <symbol id="whatsapp-icon" viewBox="0 0 32 33">
      <path d="M2.67198 29.8333L4.47464 23.2093C3.28683 21.1731 2.66277 18.8573 2.66664 16.5C2.66664 9.136 8.63598 3.16666 16 3.16666C23.364 3.16666 29.3333 9.136 29.3333 16.5C29.3333 23.864 23.364 29.8333 16 29.8333C13.6437 29.8371 11.3289 29.2136 9.29331 28.0267L2.67198 29.8333ZM11.188 10.244C11.0158 10.2547 10.8475 10.3 10.6933 10.3773C10.5487 10.4592 10.4166 10.5616 10.3013 10.6813C10.1413 10.832 10.0506 10.9627 9.95331 11.0893C9.46053 11.7307 9.19546 12.5179 9.19998 13.3267C9.20264 13.98 9.37331 14.616 9.63998 15.2107C10.1853 16.4133 11.0826 17.6867 12.268 18.8667C12.5533 19.1507 12.832 19.436 13.132 19.7013C14.6032 20.9966 16.3563 21.9307 18.252 22.4293L19.0106 22.5453C19.2573 22.5587 19.504 22.54 19.752 22.528C20.1403 22.508 20.5195 22.4028 20.8626 22.22C21.0373 22.1301 21.2077 22.0322 21.3733 21.9267C21.3733 21.9267 21.4306 21.8893 21.54 21.8067C21.72 21.6733 21.8306 21.5787 21.98 21.4227C22.0906 21.308 22.1866 21.1733 22.26 21.02C22.364 20.8027 22.468 20.388 22.5106 20.0427C22.5426 19.7787 22.5333 19.6347 22.5293 19.5453C22.524 19.4027 22.4053 19.2547 22.276 19.192L21.5 18.844C21.5 18.844 20.34 18.3387 19.632 18.016C19.5573 17.9835 19.4773 17.9649 19.396 17.9613C19.3048 17.952 19.2126 17.9622 19.1256 17.9914C19.0387 18.0206 18.959 18.0681 18.892 18.1307V18.128C18.8853 18.128 18.796 18.204 17.832 19.372C17.7766 19.4463 17.7004 19.5025 17.613 19.5334C17.5257 19.5643 17.4311 19.5684 17.3413 19.5453C17.2544 19.5221 17.1693 19.4927 17.0866 19.4573C16.9213 19.388 16.864 19.3613 16.7506 19.312L16.744 19.3093C15.9812 18.9763 15.2749 18.5265 14.6506 17.976C14.4826 17.8293 14.3266 17.6693 14.1666 17.5147C13.6421 17.0123 13.1849 16.444 12.8066 15.824L12.728 15.6973C12.6715 15.6122 12.6258 15.5204 12.592 15.424C12.5413 15.228 12.6733 15.0707 12.6733 15.0707C12.6733 15.0707 12.9973 14.716 13.148 14.524C13.2734 14.3644 13.3905 14.1984 13.4986 14.0267C13.656 13.7733 13.7053 13.5133 13.6226 13.312C13.2493 12.4 12.8626 11.492 12.4653 10.5907C12.3866 10.412 12.1533 10.284 11.9413 10.2587C11.8693 10.2507 11.7973 10.2427 11.7253 10.2373C11.5463 10.2284 11.3668 10.2302 11.188 10.2427V10.244Z" fill="currentColor"/>
    </symbol></svg>