<?xml version="1.0" encoding="UTF-8"?> <svg xmlns="http://www.w3.org/2000/svg" width="146" height="146" viewBox="0 0 146 146" fill="none"><rect width="146" height="146" rx="15" fill="#44B273"></rect><path d="M97.0119 87.2756H60.9331C56.1406 87.2756 53.1706 82.0781 55.6006 77.9268L69.2525 59.8031C71.0413 57.4406 72.0031 54.555 72.0031 51.585V43.1475H85.9419V51.585C85.9419 54.555 86.9038 57.4406 88.6925 59.8031L102.361 77.9268C104.791 82.0612 101.804 87.2756 97.0119 87.2756Z" stroke="white" stroke-width="2" stroke-miterlimit="10" stroke-linecap="round" stroke-linejoin="round"></path><path d="M86.8699 43.1472H71.0749C69.9274 43.1472 68.9824 42.2191 68.9824 41.0547V39.4685C68.9824 38.321 69.9105 37.376 71.0749 37.376H86.8699C88.0174 37.376 88.9624 38.3041 88.9624 39.4685V41.0547C88.9624 42.2191 88.0174 43.1472 86.8699 43.1472Z" stroke="white" stroke-width="2" stroke-miterlimit="10" stroke-linecap="round" stroke-linejoin="round"></path><path d="M94.7165 48.7847H56.8152C49.2721 48.7847 43.1465 54.8934 43.1465 62.4534V107.797C43.1465 115.34 49.2552 121.465 56.8152 121.465H109.111" stroke="white" stroke-width="2" stroke-miterlimit="10" stroke-linecap="round" stroke-linejoin="round"></path><path d="M71.3117 109.011C71.3117 109.011 64.258 107.374 63.6505 99.0885C63.1611 92.3722 60.0898 91.731 60.0898 91.731C60.0898 91.731 65.5573 91.2416 66.688 95.6966C67.8186 100.152 74.6361 99.3585 74.2648 91.4272C74.2648 91.4272 76.4417 94.4141 77.2686 99.1391C78.028 103.56 85.4192 102.396 84.0017 97.8229C82.5842 93.2497 86.6342 91.6466 86.6342 91.6466C86.6342 91.6466 85.1155 96.4222 89.3342 97.7891C93.553 99.156 95.8648 95.2916 95.4598 93.6885C95.4598 93.6885 96.9111 97.941 93.7555 103.56C88.3555 113.128 71.3117 109.011 71.3117 109.011Z" stroke="white" stroke-width="2" stroke-miterlimit="10" stroke-linecap="round" stroke-linejoin="round"></path><path d="M93.3159 109.889H64.8984V114.699H93.3159V109.889Z" stroke="white" stroke-width="2" stroke-miterlimit="10" stroke-linecap="round" stroke-linejoin="round"></path><path d="M98.397 114.698H60.2088C58.5551 114.698 57.2051 116.048 57.2051 117.702V121.465H101.384V117.702C101.384 116.031 100.051 114.698 98.397 114.698Z" stroke="white" stroke-width="2" stroke-miterlimit="10" stroke-linecap="round" stroke-linejoin="round"></path><path d="M43.1473 103.476H39.8736C38.2198 103.476 36.8867 102.143 36.8867 100.489V68.8824C36.8867 67.2286 38.2198 65.8955 39.8736 65.8955H43.1473V103.476Z" stroke="white" stroke-width="2" stroke-miterlimit="10" stroke-linecap="round" stroke-linejoin="round"></path><path d="M62.3516 68.9672C62.3516 68.9672 64.9334 73.4391 70.4853 69.8278C76.0372 66.2166 77.1509 76.8985 84.0528 72.0216C90.3134 67.6172 94.3128 67.2291 97.0634 70.8741" stroke="white" stroke-width="2" stroke-miterlimit="10" stroke-linecap="round" stroke-linejoin="round"></path><path d="M80.4576 31.0486C80.4576 32.4661 79.3101 33.5967 77.9095 33.5967C76.5088 33.5967 75.3613 32.4492 75.3613 31.0486C75.3613 29.648 76.5088 28.5005 77.9095 28.5005C79.3101 28.5005 80.4576 29.648 80.4576 31.0486Z" stroke="white" stroke-width="2" stroke-miterlimit="10" stroke-linecap="round" stroke-linejoin="round"></path><path d="M84.2207 27.8419L84.9126 27.3862" stroke="white" stroke-width="2" stroke-miterlimit="10" stroke-linecap="round" stroke-linejoin="round"></path><path d="M73.8268 24.788L73.6074 24.5518" stroke="white" stroke-width="2" stroke-miterlimit="10" stroke-linecap="round" stroke-linejoin="round"></path></svg> 