<?xml version="1.0" encoding="UTF-8"?> <svg xmlns="http://www.w3.org/2000/svg" width="146" height="146" viewBox="0 0 146 146" fill="none"><rect width="146" height="146" rx="15" fill="#44B273"></rect><path d="M106.633 108.691L86.9568 88.1204C83.6831 83.986 81.9112 78.8898 81.9112 73.6248V54.2017H64.0912V73.6248C64.0912 78.8898 62.3193 84.0029 59.0456 88.1204L39.3693 108.691C35.7581 113.23 38.9981 119.93 44.8031 119.93H101.182C106.987 119.93 110.227 113.23 106.633 108.691Z" stroke="white" stroke-width="2" stroke-miterlimit="10" stroke-linecap="round" stroke-linejoin="round"></path><path d="M84.0198 54.201H61.981C60.091 54.201 58.5723 52.6654 58.5723 50.7922V49.6954C58.5723 47.8054 60.1079 46.2866 61.981 46.2866H84.0029C85.8929 46.2866 87.4116 47.8222 87.4116 49.6954V50.7922C87.4285 52.6654 85.8929 54.201 84.0198 54.201Z" stroke="white" stroke-width="2" stroke-miterlimit="10" stroke-linecap="round" stroke-linejoin="round"></path><path d="M57.1562 90.0946C57.1562 90.0946 65.8806 97.9753 74.3012 91.2759C82.7387 84.5765 87.7 88.8965 90.5012 91.8159" stroke="white" stroke-width="2" stroke-miterlimit="10" stroke-linecap="round" stroke-linejoin="round"></path><path d="M85.0494 99.781C85.0494 102.582 82.7713 104.86 79.97 104.86C77.1688 104.86 74.8906 102.582 74.8906 99.781C74.8906 96.9798 77.1688 94.7017 79.97 94.7017C82.7881 94.7017 85.0494 96.9798 85.0494 99.781Z" stroke="white" stroke-width="2" stroke-miterlimit="10" stroke-linecap="round" stroke-linejoin="round"></path><path d="M61.5251 106.75C63.445 106.75 65.0013 105.193 65.0013 103.274C65.0013 101.354 63.445 99.7974 61.5251 99.7974C59.6052 99.7974 58.0488 101.354 58.0488 103.274C58.0488 105.193 59.6052 106.75 61.5251 106.75Z" stroke="white" stroke-width="2" stroke-miterlimit="10" stroke-linecap="round" stroke-linejoin="round"></path><path d="M74.8912 111.914C74.8912 113.483 73.6087 114.766 72.0394 114.766C70.47 114.766 69.1875 113.483 69.1875 111.914C69.1875 110.345 70.47 109.062 72.0394 109.062C73.6256 109.045 74.8912 110.328 74.8912 111.914Z" stroke="white" stroke-width="2" stroke-miterlimit="10" stroke-linecap="round" stroke-linejoin="round"></path><path d="M67.6355 41.0054C67.6355 41.0054 71.7193 37.9173 68.8337 34.5423C65.9481 31.1504 66.9774 27.5729 68.7493 26.0879" stroke="white" stroke-width="2" stroke-miterlimit="10" stroke-linecap="round" stroke-linejoin="round"></path><path d="M77.5403 41.0053C77.5403 41.0053 80.0884 38.9128 78.0634 35.6221C76.3084 32.7703 76.6628 30.3909 77.9959 29.2603" stroke="white" stroke-width="2" stroke-miterlimit="10" stroke-linecap="round" stroke-linejoin="round"></path></svg> 