<?xml version="1.0" encoding="UTF-8"?> <svg xmlns="http://www.w3.org/2000/svg" width="146" height="146" viewBox="0 0 146 146" fill="none"><rect width="146" height="146" rx="15" fill="#44B273"></rect><path d="M65.9959 98.4479C78.1396 98.4479 87.9841 88.6035 87.9841 76.4598C87.9841 64.3161 78.1396 54.4717 65.9959 54.4717C53.8522 54.4717 44.0078 64.3161 44.0078 76.4598C44.0078 88.6035 53.8522 98.4479 65.9959 98.4479Z" stroke="white" stroke-width="2" stroke-miterlimit="10" stroke-linecap="round" stroke-linejoin="round"></path><path d="M99.2899 40.955C99.2899 46.5238 94.7674 51.0463 89.1987 51.0463C83.6299 51.0463 79.1074 46.5238 79.1074 40.955C79.1074 35.3863 83.6299 30.8638 89.1987 30.8638C94.7674 30.8638 99.2899 35.3694 99.2899 40.955Z" stroke="white" stroke-width="2" stroke-miterlimit="10" stroke-linecap="round" stroke-linejoin="round"></path><path d="M116.839 107.258C122.052 102.046 122.052 93.5941 116.839 88.3814C111.626 83.1686 103.175 83.1686 97.9619 88.3814C92.7492 93.5941 92.7492 102.046 97.9619 107.258C103.175 112.471 111.626 112.471 116.839 107.258Z" stroke="white" stroke-width="2" stroke-miterlimit="10" stroke-linecap="round" stroke-linejoin="round"></path><path d="M42.5735 106.48C42.5735 111.256 38.6923 115.137 33.9166 115.137C29.141 115.137 25.2598 111.256 25.2598 106.48C25.2598 101.704 29.141 97.8232 33.9166 97.8232C38.6923 97.8232 42.5735 101.704 42.5735 106.48Z" stroke="white" stroke-width="2" stroke-miterlimit="10" stroke-linecap="round" stroke-linejoin="round"></path><path d="M37.8815 46.5227C41.2646 46.5227 44.0071 43.7802 44.0071 40.3971C44.0071 37.014 41.2646 34.2715 37.8815 34.2715C34.4984 34.2715 31.7559 37.014 31.7559 40.3971C31.7559 43.7802 34.4984 46.5227 37.8815 46.5227Z" stroke="white" stroke-width="2" stroke-miterlimit="10" stroke-linecap="round" stroke-linejoin="round"></path><path d="M41.5957 45.2402L52.3957 59.1959" stroke="white" stroke-width="2" stroke-miterlimit="10" stroke-linecap="round" stroke-linejoin="round"></path><path d="M84.0187 49.5942L78.4668 58.3524" stroke="white" stroke-width="2" stroke-miterlimit="10" stroke-linecap="round" stroke-linejoin="round"></path><path d="M86.0273 85.4883L95.6292 91.5295" stroke="white" stroke-width="2" stroke-miterlimit="10" stroke-linecap="round" stroke-linejoin="round"></path><path d="M40.1426 100.473L50.0145 91.5293" stroke="white" stroke-width="2" stroke-miterlimit="10" stroke-linecap="round" stroke-linejoin="round"></path><path d="M39.8053 85.3365C39.1303 85.4209 38.4553 85.4547 37.7465 85.404C31.6209 85.0665 26.9296 79.8184 27.2671 73.6928C27.6046 67.5672 32.8528 62.8759 38.9784 63.2134C39.7378 63.264 40.4803 63.3822 41.2059 63.5678" stroke="white" stroke-width="2" stroke-miterlimit="10" stroke-linecap="round" stroke-linejoin="round"></path><path d="M83.7152 97.8232C82.2809 104.978 75.9696 110.361 68.3927 110.361C61.609 110.361 55.8546 106.041 53.6777 100.017" stroke="white" stroke-width="2" stroke-miterlimit="10" stroke-linecap="round" stroke-linejoin="round"></path><path d="M87.1582 70.5704L95.1063 68.1235" stroke="white" stroke-width="2" stroke-miterlimit="10" stroke-linecap="round" stroke-linejoin="round"></path><path d="M101.771 73.0345C105.63 73.0345 108.758 69.9067 108.758 66.0483C108.758 62.1899 105.63 59.062 101.771 59.062C97.913 59.062 94.7852 62.1899 94.7852 66.0483C94.7852 69.9067 97.913 73.0345 101.771 73.0345Z" stroke="white" stroke-width="2" stroke-miterlimit="10" stroke-linecap="round" stroke-linejoin="round"></path><path d="M57.5586 51.4175C58.5036 48.2282 61.4567 45.8994 64.9498 45.8994C68.0717 45.8994 70.7717 47.7725 71.9867 50.4557" stroke="white" stroke-width="2" stroke-miterlimit="10" stroke-linecap="round" stroke-linejoin="round"></path></svg> 