<?xml version="1.0" encoding="UTF-8"?> <svg xmlns="http://www.w3.org/2000/svg" width="35" height="35" viewBox="0 0 35 35" fill="none"><path d="M7.56575 26.9792C6.90153 26.9792 6.33311 26.7429 5.86051 26.2703C5.3871 25.7968 5.15039 25.228 5.15039 24.5638V10.0716C5.15039 9.40739 5.3871 8.83897 5.86051 8.36637C6.33311 7.89296 6.90153 7.65625 7.56575 7.65625H26.8887C27.5529 7.65625 28.1217 7.89296 28.5951 8.36637C29.0677 8.83897 29.304 9.40739 29.304 10.0716V24.5638C29.304 25.228 29.0677 25.7968 28.5951 26.2703C28.1217 26.7429 27.5529 26.9792 26.8887 26.9792H7.56575ZM17.2272 18.314C17.3279 18.314 17.4333 18.2988 17.5436 18.2682C17.6547 18.2384 17.7606 18.1933 17.8612 18.1329L26.4056 12.7889C26.5666 12.6883 26.6874 12.5627 26.7679 12.4121C26.8484 12.2607 26.8887 12.0945 26.8887 11.9133C26.8887 11.5108 26.7176 11.2088 26.3754 11.0076C26.0332 10.8063 25.681 10.8164 25.3187 11.0378L17.2272 16.11L9.13574 11.0378C8.77344 10.8164 8.4212 10.8111 8.07902 11.0221C7.73684 11.2338 7.56575 11.5309 7.56575 11.9133C7.56575 12.1146 7.60601 12.2905 7.68652 12.4411C7.76704 12.5925 7.8878 12.7084 8.04883 12.7889L16.5932 18.1329C16.6938 18.1933 16.7997 18.2384 16.9108 18.2682C17.0211 18.2988 17.1266 18.314 17.2272 18.314V18.314Z" fill="#44B273"></path></svg> 