<?xml version="1.0" encoding="UTF-8"?> <svg xmlns="http://www.w3.org/2000/svg" width="118" height="39" viewBox="0 0 118 39" fill="none"><path d="M111.78 27.0527C111.926 27.0256 112.745 26.8899 112.971 27.2901C113.155 27.6123 112.794 28.1278 112.665 28.3075C111.51 29.9421 102.552 32.9671 97.3497 28.277C96.2919 27.3049 95.4782 26.1072 94.9723 24.7771C93.067 19.7377 96.666 15.095 96.895 14.8101C97.4495 14.1003 98.1079 13.4741 98.849 12.9517C101.771 11.1 104.631 10.6897 107.439 11.5951C108.176 11.8272 108.89 12.127 109.57 12.4904C111.544 13.6028 114.546 16.9398 113.956 20.9857C113.668 22.7291 112.817 24.3369 111.527 25.5741C109.212 27.575 106.463 28.2871 103.153 27.3376C101.685 26.7692 100.471 25.7105 99.727 24.3498C99.2873 23.501 99.1752 22.5259 99.4112 21.6029C99.6737 20.8665 100.12 20.2057 100.709 19.68C101.248 19.1641 101.828 18.6912 102.445 18.2658C103.486 17.4791 103.413 17.6181 104.003 17.1433C105.218 16.17 105.821 15.6817 105.971 15.1085C106.014 14.8656 106.146 14.6463 106.342 14.4913C106.475 14.4077 106.628 14.3586 106.786 14.3489C107.442 14.3184 108.424 16.1666 108.938 18.1912C109.261 19.4562 109.507 20.477 109.087 21.6707C108.896 22.2209 108.593 22.7275 108.195 23.1595C107.071 24.3668 105.603 24.4787 104.857 24.5364C103.722 24.6245 103.444 24.3058 103.371 24.1972C103.281 24.0693 103.23 23.9185 103.225 23.7632L106.231 19.1205C106.196 19.368 106.13 19.7682 106.019 20.2565C105.61 22.0607 105.075 22.7593 105.363 23.0374C105.651 23.3155 106.522 22.9662 107.047 22.5287C107.382 22.2315 107.638 21.8574 107.789 21.4401C108.188 20.4227 107.984 19.5376 107.553 17.8148C107.279 16.716 107.081 16.6109 106.97 16.5702C106.557 16.421 106.141 16.9093 104.61 18.1777C103.191 19.3646 103 19.4121 102.406 20.0632C101.65 20.8941 101.275 21.3214 101.094 21.9963C100.983 22.5323 100.998 23.0864 101.14 23.6156C101.282 24.1448 101.547 24.635 101.914 25.0484C103.76 27.1782 107.543 26.0862 107.852 25.9912C109.077 25.6439 110.163 24.9372 110.964 23.9668C111.765 22.9963 112.241 21.8088 112.329 20.5652C112.5 19.0165 112.153 17.4555 111.34 16.1158C110.334 14.5243 108.754 13.36 106.911 12.8533C105.711 12.5252 104.451 12.4673 103.225 12.6838C101.884 12.9224 100.62 13.4686 99.5362 14.2777C98.4158 15.1327 97.5179 16.2342 96.9159 17.4926C96.3367 18.5228 95.9822 19.659 95.8747 20.8297C95.7286 22.7759 96.3189 24.7068 97.5336 26.2558C98.4514 27.3341 99.635 28.1662 100.973 28.6738C101.74 29.0129 104.409 30.1456 107.331 29.3961C108.104 29.2493 108.842 28.9629 109.507 28.5517C110.507 27.9039 110.805 27.2155 111.78 27.0527Z" fill="#EAAA40"></path><path d="M104.613 30.9562C101.659 30.9562 99.0807 30.0745 97.2309 28.4026C96.1481 27.4142 95.3162 26.1926 94.8015 24.8349C92.8475 19.67 96.5923 14.9052 96.752 14.7051C97.3175 13.9792 97.99 13.3392 98.7476 12.806C101.663 10.9577 104.606 10.4965 107.49 11.4495C108.24 11.6842 108.966 11.9897 109.656 12.3617C111.707 13.5148 114.733 16.8891 114.129 21.0299C113.839 22.8101 112.973 24.4527 111.658 25.7167C109.191 27.8498 106.313 28.4535 103.103 27.5242C101.592 26.9402 100.341 25.8515 99.5735 24.4517C99.1068 23.565 98.9895 22.5416 99.2439 21.5759C99.5138 20.8127 99.9742 20.1273 100.583 19.5818C101.129 19.0617 101.716 18.5854 102.34 18.1575C102.881 17.7539 103.127 17.5877 103.308 17.4792C103.515 17.3443 103.714 17.1983 103.905 17.0417C105.085 16.0922 105.678 15.6174 105.81 15.1053C105.863 14.8222 106.02 14.5678 106.251 14.3897C106.412 14.2839 106.599 14.2219 106.792 14.21H106.813C107.625 14.21 108.625 16.221 109.125 18.188C109.44 19.4258 109.715 20.4975 109.267 21.7658C109.07 22.3378 108.754 22.8642 108.34 23.3122C107.167 24.5704 105.626 24.6891 104.87 24.7468C103.828 24.8315 103.398 24.5772 103.228 24.35C103.117 24.1956 103.053 24.0131 103.044 23.8243V23.7395L106.515 18.3745L106.4 19.1681C106.348 19.5479 106.275 19.9345 106.188 20.3177C106.047 20.9226 105.871 21.5193 105.661 22.1049C105.515 22.5255 105.397 22.8544 105.484 22.9358C105.651 23.0952 106.393 22.868 106.928 22.4203C107.24 22.1409 107.478 21.7919 107.622 21.4029C107.997 20.4534 107.82 19.6361 107.379 17.8794C107.212 17.2011 107.032 16.8077 106.907 16.7568C106.674 16.6721 106.331 16.9671 105.498 17.6793L104.724 18.3338C104.207 18.7645 103.853 19.046 103.582 19.2596C103.205 19.5412 102.857 19.8569 102.541 20.2024C101.777 21.0401 101.434 21.4368 101.267 22.0642C101.165 22.5722 101.182 23.0962 101.317 23.5967C101.453 24.0973 101.703 24.5612 102.048 24.9536C103.835 27.0155 107.636 25.893 107.795 25.8455C108.739 25.5624 109.603 25.0716 110.322 24.411C111.378 23.3751 112.025 22.0084 112.151 20.5517C112.32 19.0408 111.982 17.5171 111.186 16.2108C110.213 14.6632 108.681 13.529 106.893 13.0332C105.719 12.7138 104.487 12.657 103.287 12.867C101.975 13.104 100.738 13.6396 99.6777 14.4304C98.5792 15.2693 97.6992 16.35 97.1094 17.5843C96.5346 18.5932 96.1801 19.7075 96.0683 20.8569C95.9254 22.7561 96.5023 24.6403 97.689 26.1508C98.587 27.2111 99.7486 28.0285 101.062 28.5247C103.808 29.732 105.97 29.5794 107.309 29.2402C108.062 29.0978 108.782 28.8195 109.43 28.4195C109.73 28.2153 110.013 27.9885 110.277 27.7413C110.663 27.3098 111.182 27.0123 111.755 26.8935C112.449 26.7781 112.946 26.8935 113.144 27.2326C113.38 27.6497 112.98 28.2195 112.828 28.4331C112.182 29.3488 109.413 30.5561 106.324 30.8918C105.755 30.9436 105.184 30.9651 104.613 30.9562ZM104.564 11.3138C102.697 11.3138 100.816 11.9107 98.9454 13.0976C98.219 13.6086 97.5746 14.2224 97.0331 14.9188C96.8804 15.1121 93.2501 19.7276 95.1381 24.7162C95.6315 26.0221 96.4301 27.1973 97.4704 28.1482C100.334 30.7324 104.21 30.7426 106.265 30.5222C109.489 30.183 112.009 28.935 112.512 28.2093C112.859 27.7108 112.859 27.4835 112.81 27.3784C112.706 27.1987 112.321 27.141 111.804 27.2258L111.773 27.0562L111.8 27.2258C111.297 27.3357 110.843 27.6009 110.506 27.9821C110.231 28.2454 109.933 28.4859 109.617 28.701C108.936 29.1263 108.179 29.4221 107.386 29.5726C105.998 29.9287 103.749 30.0881 100.91 28.8367C99.5447 28.3213 98.3378 27.4724 97.4044 26.3712C96.1625 24.7912 95.5585 22.8201 95.7073 20.8332C95.8166 19.6434 96.177 18.4887 96.7658 17.4419C97.3793 16.1599 98.2951 15.0383 99.4382 14.1693C100.544 13.3433 101.835 12.7843 103.204 12.5381C104.457 12.3223 105.743 12.3814 106.969 12.711C108.858 13.2266 110.477 14.4211 111.502 16.0548C112.339 17.4245 112.695 19.0238 112.515 20.6094C112.425 21.8839 111.937 23.1009 111.119 24.097C110.3 25.093 109.188 25.8203 107.934 26.1813C107.507 26.3135 103.714 27.3852 101.809 25.1876C101.205 24.5094 100.622 23.2376 100.955 21.9829C101.142 21.2809 101.524 20.8366 102.305 19.9786C102.633 19.6179 102.997 19.2897 103.391 18.9985C103.658 18.7848 104.009 18.5068 104.523 18.0761L105.293 17.4249C106.265 16.5941 106.633 16.2821 107.063 16.4381C107.261 16.5093 107.476 16.6755 107.757 17.7946C108.167 19.4394 108.413 20.4364 107.986 21.525C107.823 21.9686 107.55 22.3658 107.191 22.6815C106.66 23.1291 105.668 23.5632 105.269 23.18C105.026 22.946 105.144 22.6068 105.359 21.9896C105.567 21.417 105.74 20.8327 105.876 20.2397C105.897 20.1481 105.918 20.0566 105.935 19.9684L103.422 23.8345C103.433 23.9395 103.471 24.0401 103.533 24.1262C103.61 24.2279 103.881 24.4653 104.859 24.3805C105.609 24.3229 107.004 24.2143 108.083 23.0579C108.463 22.6439 108.753 22.1595 108.937 21.6335C109.347 20.4602 109.086 19.436 108.781 18.2422C108.247 16.143 107.292 14.5322 106.82 14.5322C106.697 14.541 106.578 14.5795 106.473 14.6441C106.317 14.7706 106.212 14.9474 106.178 15.1426C106.011 15.7869 105.39 16.2855 104.148 17.2825C103.842 17.5267 103.71 17.6216 103.527 17.7403C103.343 17.859 103.107 18.0218 102.583 18.4186C101.967 18.8366 101.386 19.3028 100.847 19.8124C100.32 20.3652 99.8061 20.8841 99.5874 21.6641C99.3592 22.5465 99.4691 23.4801 99.8963 24.2889C100.62 25.6096 101.799 26.6369 103.225 27.1885C106.348 28.0906 109.021 27.5276 111.415 25.4589C112.673 24.2495 113.501 22.6784 113.779 20.9756C114.362 17.0044 111.45 13.7657 109.482 12.6568C108.818 12.2997 108.121 12.0044 107.4 11.775C106.487 11.4702 105.529 11.3144 104.564 11.3138Z" fill="#EAAA40"></path><path d="M4.89062 11.337L8.32304 11.4693C8.8471 11.4693 9.55857 11.4489 10.447 11.4049C11.3355 11.3608 11.8353 11.337 11.9429 11.337C16.2117 11.337 18.3449 12.8009 18.3426 15.7288C18.3561 16.357 18.2221 16.9799 17.9507 17.5496C17.6794 18.1192 17.278 18.6205 16.7774 19.0149C15.7339 19.8741 14.2867 20.3036 12.4357 20.3036V20.4359C14.5944 20.4359 16.2001 20.8225 17.2529 21.5957C18.3056 22.3689 18.832 23.5796 18.832 25.2278C18.832 26.9483 18.2373 28.2743 17.0481 29.2058C15.8588 30.1373 14.1663 30.603 11.9706 30.603C11.1724 30.603 10.3013 30.5895 9.35727 30.5623L7.09792 30.4945L4.89062 30.603C4.89062 29.5879 4.95426 27.5915 5.08151 24.614C5.15555 22.9115 5.19256 21.7054 5.19256 20.9955C5.19256 19.0082 5.17405 17.2526 5.13703 15.7288C5.10001 14.2049 5.01788 12.741 4.89062 11.337ZM9.46486 19.7441L10.0097 19.7983C12.7168 19.7983 14.0692 18.5549 14.0669 16.0679C14.0669 13.9382 12.8822 12.8733 10.513 12.8733L9.57592 12.9547C9.52733 13.4702 9.49609 13.9721 9.48568 14.4842C9.47527 14.9962 9.46486 15.6236 9.46486 16.3867V19.7441ZM9.57592 28.9786C9.90215 29.0498 10.0965 29.0905 10.1624 29.0973C10.3023 29.1055 10.4425 29.1055 10.5824 29.0973C11.7624 29.0973 12.6647 28.7582 13.3207 28.0799C13.9766 27.4016 14.2855 26.4249 14.2855 25.1668C14.2855 22.612 12.9702 21.3346 10.3395 21.3346H9.46486V24.9802C9.46486 25.3363 9.48568 26.0282 9.52039 27.0557C9.55509 28.0833 9.57592 28.7276 9.57592 28.9786Z" fill="#44B273"></path><path d="M20.4941 30.6097C21.8824 27.5914 23.2891 24.3527 24.7144 20.8936C26.0587 17.6289 27.3381 14.319 28.5528 10.9639L29.6981 11.0453L30.7393 10.9639C31.88 14.0703 33.1421 17.2988 34.5257 20.6494C35.7937 23.774 37.2085 27.0918 38.7703 30.6029C38.0461 30.5306 37.2201 30.4944 36.2923 30.4944H35.2511C34.9804 30.4944 34.498 30.5317 33.8073 30.6097C33.1132 28.3488 32.4781 26.4395 31.902 24.8818H25.1482C24.8011 25.9195 24.4333 26.9166 24.0862 27.8661C23.6524 29.104 23.3157 30.0162 23.0797 30.6097C22.6762 30.532 22.2659 30.4933 21.8546 30.4944C21.3982 30.4858 20.9422 30.5245 20.4941 30.6097ZM25.9395 23.1251H31.0864C30.3643 20.9291 29.5279 18.7706 28.5806 16.6579C27.5815 18.7655 26.6998 20.9244 25.9395 23.1251Z" fill="#44B273"></path><path d="M39.6621 11.337C40.5159 11.337 41.8046 11.3732 43.5283 11.4455C45.2521 11.5179 46.5501 11.5529 47.4223 11.5507C48.2761 11.5507 49.5568 11.5156 51.2643 11.4455C52.9718 11.3755 54.2513 11.3393 55.1028 11.337L55.0195 12.507L55.1028 13.8398C53.4951 13.5993 51.8702 13.4859 50.2439 13.5007H49.6748C49.6748 14.2083 49.6562 15.6055 49.6192 17.6923C49.5822 19.7791 49.5637 20.8835 49.5637 21.0056C49.5637 22.2469 49.573 23.6802 49.5915 25.3058C49.61 26.9314 49.7014 28.7016 49.8656 30.6166C49.0639 30.542 48.5017 30.4979 48.1755 30.4911C47.8492 30.4843 47.5855 30.4741 47.3876 30.4741H46.6241C46.4228 30.4741 45.8779 30.5182 44.9895 30.6098C44.9895 29.5947 45.0531 27.5983 45.1803 24.6208C45.2521 22.9183 45.2879 21.7122 45.2879 21.0022C45.2879 20.0278 45.2659 18.6317 45.222 16.814C45.1769 14.9928 45.1526 13.8907 45.1526 13.5007H44.5556C42.9235 13.485 41.2928 13.5984 39.6795 13.8398L39.7628 12.507L39.6621 11.337Z" fill="#44B273"></path><path d="M57.3894 15.8341L56.9799 15.7799C56.8377 14.6304 56.5915 13.4955 56.2441 12.3886C57.2635 11.9335 58.3259 11.5769 59.4163 11.3237C60.4756 11.0919 61.5584 10.9782 62.6439 10.9846C66.0381 10.9846 68.7475 11.8946 70.772 13.7146C72.7965 15.5346 73.8088 17.9424 73.8088 20.938C73.8088 24.1033 72.874 26.5687 71.0046 28.3345C69.1351 30.1002 66.502 30.9865 63.1055 30.9933C61.0193 31.0132 58.955 30.5776 57.0632 29.7181L56.4073 27.3239L56.7543 27.2425C57.5398 27.9088 58.4446 28.4274 59.4232 28.772C60.3566 29.1096 61.3432 29.2852 62.3385 29.2908C64.4787 29.2908 66.1666 28.6567 67.4021 27.3883C68.6376 26.12 69.2554 24.2977 69.2554 21.9215C68.9476 21.8876 68.5069 21.8605 67.9331 21.8401C67.3604 21.8401 66.7947 21.8164 66.2325 21.8164C65.6703 21.8164 64.3966 21.8774 62.2552 21.9995C61.0405 22.0741 60.1416 22.108 59.5585 22.108L59.6418 20.938L59.5585 19.846C60.3961 19.846 61.3679 19.8732 62.4739 19.9274C65.0699 20.0495 66.6895 20.1106 67.3327 20.1106C67.9699 20.1189 68.6072 20.0928 69.2415 20.0326C69.2415 17.7265 68.6422 15.9257 67.4437 14.6302C66.2452 13.3347 64.6476 12.687 62.6508 12.687C61.4375 12.6394 60.2348 12.9262 59.1803 13.5145C58.3079 14.0421 57.6691 14.8696 57.3894 15.8341Z" fill="#EAAA40"></path><path d="M81.4864 20.1445C84.1269 17.3609 86.5833 14.4158 88.8405 11.3271C89.1956 11.3918 89.5553 11.4293 89.9164 11.439C90.3398 11.4594 90.5828 11.4661 90.6348 11.4661C90.9264 11.4661 91.2214 11.4661 91.5233 11.439C91.8206 11.4222 92.1164 11.3848 92.4083 11.3271C91.2075 12.5344 89.9176 13.8649 88.5386 15.3187C87.3956 16.526 86.1346 17.8825 84.7556 19.3882L92.8976 30.5965C92.0057 30.5253 91.3775 30.4846 91.0027 30.4744H90.1177C89.301 30.4744 88.3755 30.5196 87.3412 30.61C86.3232 29.0274 85.3341 27.5285 84.3739 26.1132C83.3581 24.621 82.3956 23.2374 81.4864 21.9622C81.4864 25.4033 81.587 28.2859 81.7883 30.61C80.9866 30.5388 80.4244 30.4981 80.0981 30.488C79.7719 30.4778 79.5081 30.488 79.3103 30.488H78.5468C78.3455 30.488 77.8006 30.532 76.9121 30.6236C76.9121 29.6085 76.9757 27.6121 77.103 24.6346C77.1747 22.9321 77.2117 21.726 77.2141 21.016C77.2141 19.0287 77.1955 17.2732 77.1585 15.7494C77.1215 14.2255 77.0394 12.7616 76.9121 11.3576C77.7079 11.4508 78.5088 11.495 79.3103 11.4899H79.6365C79.9836 11.4899 80.3619 11.4899 80.7263 11.4627C81.0823 11.4463 81.4369 11.4089 81.7883 11.3508C81.6772 12.3434 81.5997 13.5868 81.5558 15.0813C81.5118 16.5757 81.4887 18.2634 81.4864 20.1445Z" fill="#EAAA40"></path></svg> 