<?xml version="1.0" encoding="UTF-8"?> <svg xmlns="http://www.w3.org/2000/svg" width="84" height="84" viewBox="0 0 84 84" fill="none"><path d="M49.4663 46.3611C49.0933 46.3611 48.7356 46.5148 48.4718 46.7882C48.208 47.0617 48.0598 47.4327 48.0598 47.8194C48.0598 48.2062 48.208 48.5772 48.4718 48.8506C48.7356 49.1241 49.0933 49.2778 49.4663 49.2778H56.0299C56.4029 49.2778 56.7607 49.1241 57.0245 48.8506C57.2882 48.5772 57.4364 48.2062 57.4364 47.8194C57.4364 47.4327 57.2882 47.0617 57.0245 46.7882C56.7607 46.5148 56.4029 46.3611 56.0299 46.3611H49.4663ZM19 31.2917C19 29.3578 19.7409 27.5031 21.0597 26.1357C22.3786 24.7682 24.1673 24 26.0324 24H56.9676C58.8327 24 60.6214 24.7682 61.9403 26.1357C63.2591 27.5031 64 29.3578 64 31.2917V51.7083C64 53.6422 63.2591 55.4969 61.9403 56.8643C60.6214 58.2318 58.8327 59 56.9676 59H26.0343C24.1692 59 22.3805 58.2318 21.0616 56.8643C19.7428 55.4969 19.0019 53.6422 19.0019 51.7083V31.2917H19ZM26.0324 26.9167C24.9134 26.9167 23.8401 27.3776 23.0488 28.1981C22.2575 29.0185 21.813 30.1313 21.813 31.2917V32.75H61.187V31.2917C61.187 30.1313 60.7425 29.0185 59.9512 28.1981C59.1599 27.3776 58.0866 26.9167 56.9676 26.9167H26.0343H26.0324ZM21.813 51.7083C21.813 52.8687 22.2575 53.9815 23.0488 54.8019C23.8401 55.6224 24.9134 56.0833 26.0324 56.0833H56.9676C58.0866 56.0833 59.1599 55.6224 59.9512 54.8019C60.7425 53.9815 61.187 52.8687 61.187 51.7083V35.6667H21.8148V51.7083H21.813Z" fill="#44B273"></path><rect x="1" y="1" width="82" height="82" rx="4" stroke="#44B273" stroke-width="2"></rect></svg> 