<?xml version="1.0" encoding="UTF-8"?> <svg xmlns="http://www.w3.org/2000/svg" width="35" height="35" viewBox="0 0 35 35" fill="none"><path d="M26.5879 27.8906C15.5076 27.9062 7.0977 19.3963 7.10939 8.4121C7.10939 7.69385 7.69126 7.10938 8.40821 7.10938H11.8371C12.48 7.10938 13.0268 7.58215 13.1217 8.21857C13.3478 9.74477 13.7918 11.2306 14.44 12.6307L14.5737 12.919C14.6636 13.1131 14.6829 13.3324 14.6284 13.5391C14.5739 13.7459 14.4489 13.9271 14.275 14.0516C13.2126 14.8101 12.8073 16.3362 13.6347 17.526C14.6763 19.0239 15.9764 20.3244 17.474 21.3666C18.6651 22.1926 20.1912 21.7874 20.9484 20.7263C21.0727 20.5519 21.2541 20.4264 21.4612 20.3716C21.6682 20.3169 21.8879 20.3362 22.0823 20.4262L22.3693 20.5587C23.7694 21.2081 25.2553 21.6523 26.7814 21.8783C27.4179 21.9731 27.8906 22.52 27.8906 23.1642V26.5918C27.8906 26.7624 27.857 26.9315 27.7916 27.0891C27.7263 27.2468 27.6305 27.39 27.5097 27.5106C27.389 27.6313 27.2457 27.7269 27.0879 27.7921C26.9302 27.8573 26.7612 27.8908 26.5905 27.8906H26.5879Z" fill="#44B273"></path></svg> 