<?xml version="1.0" encoding="UTF-8"?> <svg xmlns="http://www.w3.org/2000/svg" width="45" height="45" viewBox="0 0 45 45" fill="none"><path d="M7.14677 3.52432L7.28 3.18333H6.91392H4.85093C4.55785 3.18333 4.27325 3.05932 4.06079 2.83275C3.84781 2.60563 3.7256 2.29435 3.7256 1.96667C3.7256 1.63898 3.84781 1.3277 4.06079 1.10058C4.27325 0.87401 4.55785 0.75 4.85093 0.75H40.6094C40.9025 0.75 41.1871 0.87401 41.3996 1.10058C41.6125 1.3277 41.7347 1.63899 41.7347 1.96667C41.7347 2.29435 41.6125 2.60563 41.3996 2.83275C41.1871 3.05932 40.9025 3.18333 40.6094 3.18333H38.5464H38.1803L38.3136 3.52432L44.2907 18.8217L44.2913 18.823C44.4275 19.1658 44.492 19.5369 44.48 19.91C44.3952 22.1198 43.5124 24.2059 42.0207 25.7331C40.5293 27.2599 38.5453 28.1095 36.4848 28.1095C34.4243 28.1095 32.4404 27.2599 30.949 25.7331C29.4572 24.2058 28.5743 22.1195 28.4896 19.9095C28.4768 19.5366 28.5405 19.1655 28.6758 18.8224L28.6761 18.8217L34.6533 3.52432L34.7865 3.18333H34.4204H24.1055H23.8555V3.43333V32.7667V33.0167H24.1055H33.7328C35.1201 33.0167 36.4542 33.6042 37.4404 34.656C38.4272 35.7083 38.9841 37.1387 38.9841 38.6333C38.9841 40.128 38.4272 41.5584 37.4404 42.6107C36.4542 43.6624 35.1201 44.25 33.7328 44.25H11.7276C10.3402 44.25 9.00615 43.6624 8.01991 42.6107C7.03317 41.5584 6.47625 40.128 6.47625 38.6333C6.47625 37.1387 7.03317 35.7083 8.01991 34.656C9.00615 33.6042 10.3402 33.0167 11.7276 33.0167H21.3548H21.6048V32.7667V3.43333V3.18333H21.3548H11.0399H10.6738L10.807 3.52432L16.7842 18.8217L16.7847 18.8229C16.9208 19.1658 16.9854 19.5367 16.9735 19.9097C16.8887 22.1196 16.0059 24.2059 14.5141 25.7331C13.0227 27.2599 11.0388 28.1095 8.97828 28.1095C6.91777 28.1095 4.93383 27.2599 3.44242 25.7331C1.95065 24.2059 1.06781 22.1196 0.983035 19.9096C0.970318 19.5366 1.03403 19.1655 1.16933 18.8224L1.1696 18.8217L7.14677 3.52432ZM3.64889 20.7833H3.33102L3.40593 21.0923C3.72356 22.402 4.44085 23.5652 5.44847 24.3973C6.4564 25.2297 7.69746 25.6832 8.97687 25.6833H8.97694C10.2564 25.6832 11.4974 25.2297 12.5053 24.3973C13.513 23.5652 14.2302 22.402 14.5479 21.0923L14.6228 20.7833H14.3049H3.64889ZM9.20976 5.68902L8.9769 5.09305L8.74405 5.68902L3.93041 18.009L3.79718 18.35H4.16326H13.7905H14.1566L14.0234 18.009L9.20976 5.68902ZM41.2971 18.35H41.6632L41.5299 18.009L36.7163 5.68902L36.4834 5.09305L36.2506 5.68902L31.4369 18.009L31.3037 18.35H31.6698H41.2971ZM31.1554 20.7833H30.838L30.9124 21.0919C31.2285 22.4031 31.9452 23.5679 32.9531 24.4013C33.9612 25.2349 35.2031 25.6891 36.4834 25.6891C37.7638 25.6891 39.0057 25.2349 40.0138 24.4013C41.0216 23.5679 41.7384 22.4031 42.0545 21.0919L42.1289 20.7833H41.8115H31.1554ZM33.7328 35.45H11.7276C10.9264 35.45 10.1615 35.7896 9.60019 36.3881C9.03939 36.9862 8.7269 37.7941 8.7269 38.6333C8.7269 39.4726 9.03939 40.2805 9.60019 40.8785C10.1615 41.4771 10.9264 41.8167 11.7276 41.8167H33.7328C34.534 41.8167 35.2988 41.4771 35.8601 40.8785C36.4209 40.2805 36.7334 39.4726 36.7334 38.6333C36.7334 37.7941 36.4209 36.9862 35.8601 36.3881C35.2988 35.7896 34.534 35.45 33.7328 35.45Z" fill="white" stroke="#EAAA40" stroke-width="0.5"></path></svg> 