<?xml version="1.0" encoding="UTF-8"?> <svg xmlns="http://www.w3.org/2000/svg" width="35" height="35" viewBox="0 0 35 35" fill="none"><g clip-path="url(#clip0_310_939)"><path d="M17.5 27.8906C11.7608 27.8906 7.10938 23.2392 7.10938 17.5C7.10938 11.7608 11.7608 7.10938 17.5 7.10938C23.2392 7.10938 27.8906 11.7608 27.8906 17.5C27.8906 23.2392 23.2392 27.8906 17.5 27.8906ZM16.5259 17.5C16.5259 17.8247 16.6882 18.1291 16.9602 18.2752L20.8567 20.8729C21.3031 21.2057 21.9079 21.084 22.1717 20.6375C22.5045 20.191 22.3828 19.5862 21.9363 19.2859L18.4741 16.9805V11.98C18.4741 11.4402 18.0398 11.0059 17.4635 11.0059C16.9602 11.0059 16.4893 11.4402 16.4893 11.98L16.5259 17.5Z" fill="#44B273"></path></g><defs><clipPath id="clip0_310_939"><rect width="20.7812" height="20.7812" fill="white" transform="translate(7.10938 7.10938)"></rect></clipPath></defs></svg> 