<svg width="860" height="295" viewBox="0 0 860 295" fill="none" xmlns="http://www.w3.org/2000/svg"><g clip-path="url(#clip0_310_1176)" stroke="#fff" opacity=".08"><path d="M107.646 0V412" stroke-width="5"/><path d="M240.61 0V412" stroke-width="5"/><path d="M373.574 0V412" stroke-width="5"/><path d="M0 92.864H904.849" stroke-width="5"/><path d="M0 205.614H904.849" stroke-width="5"/><path d="M506.538 0V412" stroke-width="5"/><path d="M639.502 0V412" stroke-width="5"/><path d="M772.466 0V412" stroke-width="5"/><path d="M108.987 85.0166L116.123 92.1458C116.691 92.7141 116.691 93.6342 116.123 94.2025L108.987 101.332C108.418 101.899 107.497 101.899 106.928 101.332L99.7914 94.2025C99.2232 93.6342 99.2232 92.7141 99.7914 92.1458L106.928 85.0166C107.497 84.4489 108.418 84.4489 108.987 85.0166Z" fill="#fff"/><path d="M241.95 85.0166L249.086 92.1458C249.654 92.7141 249.654 93.6342 249.086 94.2025L241.95 101.332C241.381 101.899 240.46 101.899 239.891 101.332L232.754 94.2025C232.186 93.6342 232.186 92.7141 232.754 92.1458L239.891 85.0166C240.46 84.4489 241.381 84.4489 241.95 85.0166Z" fill="#fff"/><path d="M374.913 85.0166L382.05 92.1458C382.618 92.7141 382.618 93.6342 382.05 94.2025L374.913 101.332C374.345 101.899 373.424 101.899 372.855 101.332L365.718 94.2025C365.15 93.6342 365.15 92.7141 365.718 92.1458L372.855 85.0166C373.424 84.4489 374.345 84.4489 374.913 85.0166Z" fill="#fff"/><path d="M507.879 85.0166L515.017 92.1458C515.582 92.7141 515.582 93.6342 515.017 94.2025L507.879 101.332C507.308 101.899 506.388 101.899 505.818 101.332L498.679 94.2025C498.115 93.6342 498.115 92.7141 498.679 92.1458L505.818 85.0166C506.388 84.4489 507.308 84.4489 507.879 85.0166Z" fill="#fff"/><path d="M640.843 85.0166L647.981 92.1458C648.546 92.7141 648.546 93.6342 647.981 94.2025L640.843 101.332C640.272 101.899 639.352 101.899 638.782 101.332L631.643 94.2025C631.079 93.6342 631.079 92.7141 631.643 92.1458L638.782 85.0166C639.352 84.4489 640.272 84.4489 640.843 85.0166Z" fill="#fff"/><path d="M773.807 85.0166L780.945 92.1458C781.51 92.7141 781.51 93.6342 780.945 94.2025L773.807 101.332C773.236 101.899 772.316 101.899 771.745 101.332L764.607 94.2025C764.042 93.6342 764.042 92.7141 764.607 92.1458L771.745 85.0166C772.316 84.4489 773.236 84.4489 773.807 85.0166Z" fill="#fff"/><path d="M108.987 198.152L116.123 205.282C116.691 205.85 116.691 206.77 116.123 207.338L108.987 214.467C108.418 215.035 107.497 215.035 106.928 214.467L99.7914 207.338C99.2232 206.77 99.2232 205.85 99.7914 205.282L106.928 198.152C107.497 197.585 108.418 197.585 108.987 198.152Z" fill="#fff"/><path d="M241.95 198.152L249.086 205.282C249.654 205.85 249.654 206.77 249.086 207.338L241.95 214.467C241.381 215.035 240.46 215.035 239.891 214.467L232.754 207.338C232.186 206.77 232.186 205.85 232.754 205.282L239.891 198.152C240.46 197.585 241.381 197.585 241.95 198.152Z" fill="#fff"/><path d="M374.913 198.152L382.05 205.282C382.618 205.85 382.618 206.77 382.05 207.338L374.913 214.467C374.345 215.035 373.424 215.035 372.855 214.467L365.718 207.338C365.15 206.77 365.15 205.85 365.718 205.282L372.855 198.152C373.424 197.585 374.345 197.585 374.913 198.152Z" fill="#fff"/><path d="M507.879 198.152L515.017 205.282C515.582 205.85 515.582 206.77 515.017 207.338L507.879 214.467C507.308 215.035 506.388 215.035 505.818 214.467L498.679 207.338C498.115 206.77 498.115 205.85 498.679 205.282L505.818 198.152C506.388 197.585 507.308 197.585 507.879 198.152Z" fill="#fff"/><path d="M640.843 198.152L647.981 205.282C648.546 205.85 648.546 206.77 647.981 207.338L640.843 214.467C640.272 215.035 639.352 215.035 638.782 214.467L631.643 207.338C631.079 206.77 631.079 205.85 631.643 205.282L638.782 198.152C639.352 197.585 640.272 197.585 640.843 198.152Z" fill="#fff"/><path d="M773.807 198.152L780.945 205.282C781.51 205.85 781.51 206.77 780.945 207.338L773.807 214.467C773.236 215.035 772.316 215.035 771.745 214.467L764.607 207.338C764.042 206.77 764.042 205.85 764.607 205.282L771.745 198.152C772.316 197.585 773.236 197.585 773.807 198.152Z" fill="#fff"/></g><defs><clipPath id="clip0_310_1176"><path fill="#fff" d="M0 0H904.849V412H0z"/></clipPath></defs></svg>