<svg width="63" height="47" viewBox="0 0 63 47" fill="none" xmlns="http://www.w3.org/2000/svg">
<mask id="path-1-inside-1_384_1223" fill="white">
<path d="M18.6266 0.692001C17.9497 0.810417 16.5341 1.35808 15.7956 1.80214C9.49352 5.60619 8.28726 15.7306 13.4446 21.4145L14.257 22.3026L11.5122 22.3914C8.54575 22.4802 7.61028 22.643 6.13323 23.3831C3.1422 24.8633 0.877382 28.1789 0.212708 32.0274C-0.858156 38.2441 2.20673 44.2832 7.32718 46.0595L8.28726 46.3999H31.4893H54.6913L55.6514 46.0595C59.4548 44.7421 62.1751 41.0713 62.8644 36.3495C63.6398 31.0949 61.0181 25.4554 56.8454 23.3831C55.3929 22.6578 54.4205 22.4802 51.5895 22.3914L48.9801 22.3026L49.5832 21.7253C50.8264 20.5412 52.1434 18.0989 52.6481 16.0563C53.1651 13.984 53.1651 11.1569 52.6604 9.11422C51.6018 4.95491 48.6354 1.69852 45.0905 0.810417C44.3027 0.617992 42.4933 0.58839 31.5878 0.603191C24.6579 0.617992 18.8359 0.662399 18.6266 0.692001ZM22.1593 3.08989C25.8519 4.22963 28.3259 8.03368 28.3383 12.5778C28.3383 14.2208 28.1659 15.2274 27.612 16.6483C26.2458 20.2452 23.4886 22.347 20.1775 22.347C18.7497 22.347 17.8512 22.0954 16.5341 21.3257C14.6755 20.2304 13.1123 18.0545 12.4599 15.6418C12.1768 14.6057 12.1153 14.1616 12.1153 12.6518C12.103 11.3345 12.1645 10.6536 12.3245 10.0023C13.0631 7.11597 14.5401 5.01412 16.6818 3.75597C18.3312 2.79385 20.3868 2.54222 22.1593 3.08989ZM45.0782 3.10469C47.7492 3.91879 49.9648 6.43509 50.8633 9.66188C51.0726 10.4316 51.3064 12.5334 51.208 12.8295L51.1218 14.1691L50.9249 15.2422L50.7033 16.0118C50.0263 18.3357 48.2908 20.5264 46.3214 21.5773C45.0536 22.2434 44.3643 22.347 41.2625 22.347H38.3453C35.9358 22.3285 35.0096 22.347 32.8802 22.347H32.2278H29.6122C27.3505 22.347 27.7844 22.347 26.7997 22.347H26.1842L27.0951 21.2665C28.1044 20.0675 28.609 19.2534 29.1999 17.7881C30.5908 14.3985 30.5292 10.328 29.0275 6.98276C28.3752 5.53219 27.5628 4.28883 26.7381 3.47474L26.0488 2.80866H35.0835C43.6873 2.80866 44.1796 2.82346 45.0782 3.10469ZM12.0907 25.0113C14.934 25.8846 17.2234 28.7118 17.962 32.2642C18.2451 33.6112 18.1589 35.9646 17.7773 37.3708C16.1526 43.4692 10.269 46.1335 5.72704 42.8179C3.24067 41.0121 1.70207 37.4596 1.86208 33.9664C2.07133 29.7627 4.37307 26.2547 7.73337 25.0557C8.96425 24.6265 10.7613 24.5969 12.0907 25.0113ZM23.5625 25.3962C21.7408 27.1724 20.1898 30.8876 20.1529 33.5816C20.1406 34.3364 20.1283 34.3661 20.0421 33.8924C19.9929 33.6112 19.8821 32.8859 19.8083 32.279C19.5129 29.9847 18.2697 27.2612 16.7434 25.6182L15.9187 24.7153H20.0914H24.2517L23.5625 25.3962ZM31.8832 24.8781C32.2401 24.9669 33.0525 25.337 33.6926 25.707C34.665 26.2547 35.0342 26.5803 35.8589 27.5868C37.5945 29.6591 38.3453 32.0274 38.2222 35.0025C38.1237 37.5928 37.3975 39.5171 35.7851 41.4413C33.2987 44.4461 29.4953 45.1121 26.2827 43.1139C25.0026 42.3294 23.4517 40.42 22.8362 38.8954C21.3961 35.3134 21.79 31.1837 23.8579 28.2085C24.9287 26.6543 26.5781 25.3962 28.1167 24.9521C28.9906 24.7005 30.9846 24.6561 31.8832 24.8781ZM55.196 25.0557C58.5932 26.2251 60.9073 29.7331 61.1165 33.9664C61.3627 39.073 58.0886 43.706 53.8913 44.1944L53.0912 44.298C53.0912 44.298 46.1737 44.1944 46.1244 44.2536H38.9823L36.0066 44.2832L36.9913 43.1139C38.0499 41.8854 38.8007 40.6124 39.2561 39.295L39.5392 38.4809L39.719 37.6901C39.9351 36.7395 40.0563 35.7698 40.0808 34.7953C40.1793 31.3613 39.0838 28.1937 36.9667 25.7662L36.0435 24.7153H45.1397H54.2359L55.196 25.0557ZM20.4853 37.7113C20.9899 39.8427 21.9254 41.6337 23.3532 43.2619L24.2271 44.2536H22.307H18.0727C17.0573 44.2536 16.3126 44.2684 16.1403 44.0464C16.1156 44.0168 16.3372 43.7652 16.6326 43.4691C17.3588 42.7587 18.4543 41.0121 18.9836 39.7243C19.4267 38.629 19.9191 36.6603 19.9191 35.9498C19.9191 35.7426 19.956 35.3282 20.0052 35.0617C20.0791 34.6325 20.116 34.7361 20.1898 35.7278C20.2391 36.3643 20.3745 37.2672 20.4853 37.7113Z"/>
</mask>
<path d="M18.6266 0.692001C17.9497 0.810417 16.5341 1.35808 15.7956 1.80214C9.49352 5.60619 8.28726 15.7306 13.4446 21.4145L14.257 22.3026L11.5122 22.3914C8.54575 22.4802 7.61028 22.643 6.13323 23.3831C3.1422 24.8633 0.877382 28.1789 0.212708 32.0274C-0.858156 38.2441 2.20673 44.2832 7.32718 46.0595L8.28726 46.3999H31.4893H54.6913L55.6514 46.0595C59.4548 44.7421 62.1751 41.0713 62.8644 36.3495C63.6398 31.0949 61.0181 25.4554 56.8454 23.3831C55.3929 22.6578 54.4205 22.4802 51.5895 22.3914L48.9801 22.3026L49.5832 21.7253C50.8264 20.5412 52.1434 18.0989 52.6481 16.0563C53.1651 13.984 53.1651 11.1569 52.6604 9.11422C51.6018 4.95491 48.6354 1.69852 45.0905 0.810417C44.3027 0.617992 42.4933 0.58839 31.5878 0.603191C24.6579 0.617992 18.8359 0.662399 18.6266 0.692001ZM22.1593 3.08989C25.8519 4.22963 28.3259 8.03368 28.3383 12.5778C28.3383 14.2208 28.1659 15.2274 27.612 16.6483C26.2458 20.2452 23.4886 22.347 20.1775 22.347C18.7497 22.347 17.8512 22.0954 16.5341 21.3257C14.6755 20.2304 13.1123 18.0545 12.4599 15.6418C12.1768 14.6057 12.1153 14.1616 12.1153 12.6518C12.103 11.3345 12.1645 10.6536 12.3245 10.0023C13.0631 7.11597 14.5401 5.01412 16.6818 3.75597C18.3312 2.79385 20.3868 2.54222 22.1593 3.08989ZM45.0782 3.10469C47.7492 3.91879 49.9648 6.43509 50.8633 9.66188C51.0726 10.4316 51.3064 12.5334 51.208 12.8295L51.1218 14.1691L50.9249 15.2422L50.7033 16.0118C50.0263 18.3357 48.2908 20.5264 46.3214 21.5773C45.0536 22.2434 44.3643 22.347 41.2625 22.347H38.3453C35.9358 22.3285 35.0096 22.347 32.8802 22.347H32.2278H29.6122C27.3505 22.347 27.7844 22.347 26.7997 22.347H26.1842L27.0951 21.2665C28.1044 20.0675 28.609 19.2534 29.1999 17.7881C30.5908 14.3985 30.5292 10.328 29.0275 6.98276C28.3752 5.53219 27.5628 4.28883 26.7381 3.47474L26.0488 2.80866H35.0835C43.6873 2.80866 44.1796 2.82346 45.0782 3.10469ZM12.0907 25.0113C14.934 25.8846 17.2234 28.7118 17.962 32.2642C18.2451 33.6112 18.1589 35.9646 17.7773 37.3708C16.1526 43.4692 10.269 46.1335 5.72704 42.8179C3.24067 41.0121 1.70207 37.4596 1.86208 33.9664C2.07133 29.7627 4.37307 26.2547 7.73337 25.0557C8.96425 24.6265 10.7613 24.5969 12.0907 25.0113ZM23.5625 25.3962C21.7408 27.1724 20.1898 30.8876 20.1529 33.5816C20.1406 34.3364 20.1283 34.3661 20.0421 33.8924C19.9929 33.6112 19.8821 32.8859 19.8083 32.279C19.5129 29.9847 18.2697 27.2612 16.7434 25.6182L15.9187 24.7153H20.0914H24.2517L23.5625 25.3962ZM31.8832 24.8781C32.2401 24.9669 33.0525 25.337 33.6926 25.707C34.665 26.2547 35.0342 26.5803 35.8589 27.5868C37.5945 29.6591 38.3453 32.0274 38.2222 35.0025C38.1237 37.5928 37.3975 39.5171 35.7851 41.4413C33.2987 44.4461 29.4953 45.1121 26.2827 43.1139C25.0026 42.3294 23.4517 40.42 22.8362 38.8954C21.3961 35.3134 21.79 31.1837 23.8579 28.2085C24.9287 26.6543 26.5781 25.3962 28.1167 24.9521C28.9906 24.7005 30.9846 24.6561 31.8832 24.8781ZM55.196 25.0557C58.5932 26.2251 60.9073 29.7331 61.1165 33.9664C61.3627 39.073 58.0886 43.706 53.8913 44.1944L53.0912 44.298C53.0912 44.298 46.1737 44.1944 46.1244 44.2536H38.9823L36.0066 44.2832L36.9913 43.1139C38.0499 41.8854 38.8007 40.6124 39.2561 39.295L39.5392 38.4809L39.719 37.6901C39.9351 36.7395 40.0563 35.7698 40.0808 34.7953C40.1793 31.3613 39.0838 28.1937 36.9667 25.7662L36.0435 24.7153H45.1397H54.2359L55.196 25.0557ZM20.4853 37.7113C20.9899 39.8427 21.9254 41.6337 23.3532 43.2619L24.2271 44.2536H22.307H18.0727C17.0573 44.2536 16.3126 44.2684 16.1403 44.0464C16.1156 44.0168 16.3372 43.7652 16.6326 43.4691C17.3588 42.7587 18.4543 41.0121 18.9836 39.7243C19.4267 38.629 19.9191 36.6603 19.9191 35.9498C19.9191 35.7426 19.956 35.3282 20.0052 35.0617C20.0791 34.6325 20.116 34.7361 20.1898 35.7278C20.2391 36.3643 20.3745 37.2672 20.4853 37.7113Z" fill="white" stroke="#343434" stroke-width="0.4" mask="url(#path-1-inside-1_384_1223)"/>
</svg>
